<svg width="24" height="24" viewBox="0 0 24 24" fill="none" xmlns="http://www.w3.org/2000/svg">
<path d="M12.105 3C12.2809 3.02318 12.4362 3.11923 12.5347 3.2627L12.5747 3.3291L14.7896 7.78906V7.79004C15.0221 8.26502 15.4731 8.59323 15.9927 8.67285L15.9966 8.67383L20.9663 9.39453H20.9673C21.2 9.42778 21.3953 9.58834 21.4741 9.80957C21.5426 10.0246 21.4816 10.2595 21.3159 10.415L21.3149 10.417L17.5747 13.957L17.5708 13.9609C17.1935 14.3266 17.0202 14.8549 17.106 15.3721L17.1069 15.3789L17.9966 20.2988C18.0366 20.522 17.9421 20.7481 17.7544 20.8779L17.7437 20.8867C17.5583 21.0222 17.3098 21.0393 17.105 20.9297L17.0991 20.9268L12.6704 18.6162H12.6694C12.4464 18.4984 12.2013 18.4368 11.9536 18.4297L11.9468 18.4287H11.6313L11.5952 18.4346C11.4487 18.4564 11.3025 18.503 11.1665 18.5762L6.74365 20.8936C6.6192 20.956 6.4793 20.9771 6.34229 20.9561C6.02473 20.891 5.81277 20.589 5.86084 20.2676L6.75049 15.3477L6.75146 15.3398C6.83671 14.8208 6.66513 14.2928 6.29053 13.9238L6.2876 13.9209L2.67627 10.4209C2.51358 10.2629 2.45796 10.027 2.53174 9.81445L2.53271 9.81055C2.60704 9.59089 2.79616 9.43019 3.02393 9.39355L7.98975 8.67383L7.98877 8.67285C8.46079 8.61843 8.88103 8.3599 9.14209 7.9707L9.24561 7.79395L9.24756 7.78906L11.4321 3.31055C11.4584 3.2601 11.4904 3.21718 11.5249 3.18164L11.5854 3.13477L11.6196 3.10742L11.6489 3.0752C11.655 3.06847 11.6631 3.06299 11.6714 3.05664L11.7202 3.03906L11.73 3.03613L11.7388 3.03223L11.8169 3H12.105Z" stroke="#4974A0"/>
</svg>
