<svg width="27" height="27" viewBox="0 0 27 27" fill="none" xmlns="http://www.w3.org/2000/svg">
<path d="M19.8135 15.3206C19.571 15.6037 19.4833 15.9887 19.5781 16.3494L20.9645 21.3278C21.0817 21.7498 20.941 22.2009 20.6049 22.4824C20.2769 22.7725 19.8115 22.847 19.4084 22.6769L14.6289 20.7239C14.4625 20.6542 14.2823 20.6253 14.1017 20.637L13.8228 20.6629C13.7274 20.6864 13.6356 20.726 13.5536 20.7814L9.21671 23.5947C9.00186 23.7288 8.75036 23.7928 8.49653 23.7759C7.87653 23.7174 7.41596 23.1748 7.45877 22.5531L7.90328 17.4043C7.9296 17.0291 7.77216 16.6649 7.48116 16.4273L3.42942 13.1712C3.09053 12.8986 2.94031 12.4558 3.04429 12.034C3.14426 11.6136 3.46854 11.2834 3.88736 11.1769L8.93328 9.95863C9.31857 9.88227 9.63822 9.61374 9.7806 9.24753L11.6042 4.41667C11.6482 4.30877 11.7083 4.20767 11.7842 4.11963L11.8701 4.03896C11.9135 3.98094 11.965 3.93151 12.0234 3.88974L12.1317 3.83813L12.3 3.7498L12.7332 3.70946C13.124 3.71357 13.4862 3.91341 13.6964 4.24264L16.4085 8.63042C16.6045 8.95163 16.9463 9.15545 17.3211 9.17766L22.5052 9.44345C22.9432 9.46495 23.3322 9.72978 23.5136 10.1281C23.6868 10.5283 23.6127 10.9919 23.3234 11.3189L19.8135 15.3206Z" fill="#FFC700"/>
</svg>
