<svg width="891" height="457" viewBox="0 0 891 457" fill="none" xmlns="http://www.w3.org/2000/svg">
<path opacity="0.5" d="M885.888 48.1304L886.578 49.0642L886.426 51.0202L887.16 51.8103L886.463 52.6239L886.593 53.062L888.445 53.6544L889.616 56.1378L889.437 57.9141L887.661 58.5327L887.408 59.8859L884.078 60.3954L883.817 61.2472L882.73 62.204L882.495 63.2355L883.196 65.5931L882.57 68.4957L882.644 68.7862L882.725 69.384L882.229 70.9986L883.207 74.1791L881.576 74.5871L881.428 76.1969L879.597 76.1307L878.015 79.2976L873.928 81.9448L873.379 83.4701L870.978 82.078L868.914 82.773L867.57 81.9137L865.181 81.9454L864.99 81.9711L864.887 82.0396L863.796 82.7439L862.81 83.9026L860.502 84.5321L860.272 85.5458L858.429 86.6458L857.443 85.8823L855.481 87.104L854.121 87.1619L853.132 88.3948L852.324 87.5829L849.215 88.7642L848.59 89.6739L846.21 90.2055L845.384 90.9079L843.864 89.8285L842.314 90.2389L840.794 89.7549L839.973 90.1109L837.756 90.1119L836.012 88.3007L834.112 89.0588L834.204 88.1618L835.145 87.4154L835.16 86.1714L833.983 84.8364L834 84.5164L834.065 83.7081L834.109 83.2976L833.616 82.3205L832.789 82.0988L832.3 81.9679L832.225 81.9477L832.068 81.3298L831.97 81.0538L831.361 80.7179L829.891 80.0724L829.586 78.7445L829.934 77.0136L830.637 76.1823L831.066 75.6462L830.75 75.216L829.13 77.0478L828.891 77.2314L828.422 78.7591L828.787 79.625L828.118 80.3481L824.162 82.3027L821.526 84.2653L818.486 87.541L818.439 88.0275L818.417 88.0985L818.351 88.5781L818.387 89.5882L818.278 90.807L818.105 91.1063L817.986 91.228L817.132 91.0951L815.813 90.8186L814.752 91.3599L814.657 89.4143L813.775 88.7748L810.83 89.157L809.605 88.3085L806.731 88.4618L802.953 90.3662L799.975 92.9114L798.659 92.5588L796.474 93.0488L796.627 94.0112L794.54 95.0457L793.079 95.2305L792.296 94.8669L790.703 96.0146L788.483 96.0899L787.23 97.254L785.112 100.181L784.285 100.555L782.995 105.624L781.409 105.621L780.369 106.092L778.747 105.079L777.365 105.21L776.868 104.576L775.615 105.74L774.057 106.244L773.534 107.352L772.273 107.417L771.729 109.191L769.583 109.289L768.083 110.135L767.546 110.162L766.351 110.343L764.963 112.813L762.859 116.819L762.669 118.035L763.758 119.326L762.808 119.57L763.367 121.794L760.955 121.897L760.139 123.099L760.861 124.79L760.045 125.99L759.73 126.156L758.714 124.56L758.219 126.175L757.611 126.434L757.085 125.295L756.112 124.689L753.949 125.108L750.741 123.497L749.997 122.474L748.323 123.022L754.861 126.445L753.596 126.856L752.573 126.41L750.938 126.567L749.77 129.247L749.395 128.15L748.265 127.521L748.479 126.561L747.309 125.997L746.989 125.912L743.882 127.42L743.451 127.631L742.185 128.311L738.946 131.111L737.629 133.082L737.188 135.978L736.461 136.359L736.763 136.767L736.573 137.386L736.475 137.707L735.769 138.017L734.969 137.707L734.579 138.447L735.257 139.954L733.501 142.824L732.983 144.779L733.319 146.27L734.279 147.449L732.971 148.597L731.806 148.88L731.301 149.664L730.622 149.887L729.613 149.463L729.521 149.765L730.121 150.924L729.224 154.447L728.887 154.684L728.415 154.231L727.984 154.442L727.198 156.476L727.288 158.768L729.11 160.254L729.09 160.652L727.828 161.581L726.248 161.561L725.777 161.108L725.704 161.012L725.744 159.756L725.232 159.369L723.078 158.964L723.241 157.837L722.36 156.929L721.018 157.587L719.41 157.06L715.963 160.802L714.862 160.68L712.708 161.601L712.74 162.358L712.23 162.894L711.373 162.837L710.616 162.384L710.762 162.174L712.682 159.098L710.821 158.004L710.609 155.777L711.278 155.054L711.743 152.411L711.46 151.013L712.406 150.515L712.184 150.112L712.086 149.836L711.304 149.799L710.075 151.218L708.418 150.85L707.911 151.308L707.326 151.825L707.825 152.784L707.617 153.727L709.268 155.838L709.143 155.98L707.838 159.372L708.411 160.622L706.699 162.487L705.83 163.001L704.754 163.06L704.721 164.624L707.052 166.842L706.892 167.627L704.316 167.935L704.127 168.883L703.663 168.605L703.818 167.303L702.857 166.392L702.782 165.775L700.391 165.211L699.181 163.986L698.235 163.886L696.317 164.966L694.973 166.43L693.23 165.81L691.263 166.452L690.947 166.024L690.306 164.93L689.378 165.104L688.911 164.305L688.035 164.84L686.836 164.173L682.426 164.161L680.342 164.853L675.25 170.245L675.259 171.075L672.932 175.214L671.839 175.593L671.237 176.43L670.735 177.467L671.653 178.788L671.369 179.711L669.923 181.243L670.174 182.48L669.788 182.878L669.467 182.465L668.739 182.846L668.3 182.556L667.685 182.238L666.566 182.437L666.657 183.535L665.48 183.392L664.931 181.999L663.236 183.215L662.744 184.485L661.576 184.844L660.936 184.346L658.4 184.588L658.295 185.461L657.345 185.707L657.229 186.348L653.697 186.324L653.993 187.152L653.348 188.323L652.55 188.935L650.721 188.865L647.236 191.006L645.342 194.262L645.222 196.976L643.903 196.699L642.783 196.572L641.739 197.387L642.088 198.306L640.951 199.095L638.614 199.218L635.327 201.909L631.746 202.044L630.565 202.976L628.473 203.164L627.849 204.072L626.485 204.474L624.679 206.314L623.863 208.112L623.76 209.908L622.179 213.073L620.506 218.791L620.181 218.126L619.741 217.837L619.274 217.635L618.79 217.753L619.555 218.709L619.702 218.825L619.76 219.762L619.511 222.036L616.821 231.07L617.261 231.689L617.004 232.791L617.628 234.207L616.151 235.309L615.798 237.057L616.187 239.235L615.272 240.162L614.121 242.522L611.684 244.365L611.685 244.961L610.01 245.511L609.439 246.777L609.792 247.948L609.477 248.707L608.274 249.712L607.932 249.965L607.518 252.176L604.954 254.832L603.782 259.182L602.403 260.562L602.672 262.802L601.606 263.689L601.812 265.338L601.138 265.811L601.251 267.435L599.843 267.979L598.914 270.476L598.239 270.622L597.994 270.556L595.251 269.418L588.711 267.992L587.627 266.952L585.194 264.803L582.238 263.761L580.424 262.181L578.596 259.521L578.309 257.869L577.25 256.414L574.599 254.379L569.667 252.885L563.941 252.848L562.387 253.603L560.338 255.376L558.517 256.407L555.756 257.912L552.402 261.354L549.512 262.75L547.18 262.528L547.077 262.597L545.795 263.326L545.294 264.365L544.452 265.983L542.096 268.422L541.141 268.418L540.034 267.718L539.543 266.665L540.659 266.541L540.872 265.848L540.567 264.52L539.691 264.458L537.944 265.314L537.324 264.15L537.575 262.47L539.603 260.171L540.125 258.468L536.735 260.899L534.542 265.728L534.476 266.805L531.661 268.22L529.563 267.831L528.704 269.175L528.122 269.346L525.767 268.139L523.722 267.84L522.04 268.482L521.353 270.124L515.093 265.202L514.147 265.102L518.844 270.546L519.857 271.221L523.025 271.571L523.645 270.412L526.2 270.175L530.577 271.424L530.714 270.712L531.366 270.311L534.236 269.907L535.935 268.943L536.294 268.041L535.968 267.377L536.577 267.118L539.781 271.393L539.926 274.103L539.462 276.148L537.546 282.392L537.64 282.417L537.895 283.313L539.215 283.916L540.127 285.253L540.012 286.223L539.027 287.38L539.104 287.727L539.162 288.664L541.637 292.399L540.447 292.829L535.367 291.219L534.493 291.484L532.9 293.227L531.171 296.277L530.41 300.814L531.032 301.904L532.593 302.916L531.896 303.73L530.26 303.291L528.631 303.431L526.946 305.474L524.159 304.479L522.812 303.965L520.698 304.819L516.444 304.829L515.998 304.558L514.59 305.103L513.102 304.781L510.865 305.178L509.441 304.049L504.479 304.64L503.328 304.082L501.748 304.062L500.902 302.508L498.37 300.085L497.247 300.033L496.674 300.705L495.626 300.674L495.144 301.716L491.611 301.096L484.68 300.082L482.574 299.191L479.851 299.712L477.551 300.843L474.629 300.885L471.401 299.272L470.654 297.994L469.872 297.691L467.318 297.928L466.454 297.293L465.372 298.499L464.323 297.874L462.694 298.609L460.429 298.501L458.322 297.013L454.437 295.819L453.025 296.441L450.416 298.581L449.32 298.441L447.565 295.804L443.551 293.902L440.769 293.157L432.296 288.217L432.149 288.101L424.301 284.904L422.938 282.714L417.142 282.909L414.093 284.759L411.431 283.952L409.966 284.154L406.965 282.926L401.497 278.87L400.226 278.702L400.2 278.523L397.277 275.915L396.756 275.027L396.801 274.615L397.034 273.258L394.172 272.242L392.559 271.732L391.401 270.001L391.359 268.415L388.218 263.138L386.16 262.088L382.89 261.807L381.183 261.599L377.956 259.985L374.082 259.351L371.6 257.361L368.554 257.543L364.323 256.083L361.072 257.132L360.415 256.687L353.696 257.304L350.151 258.449L349.978 258.48L348.12 257.905L346.676 256.846L344.143 257.012L341.742 257.941L337.232 257.657L336.646 257.576L334.731 256.063L331.779 255.272L328.341 252.356L322.745 253.026L319.105 255.142L317.457 255.275L316.817 254.777L316.795 254.848L315.665 254.22L315.515 254.18L314.209 254.656L313.563 255.902L312.677 257.661L311.913 258.956L311.588 261.21L312.27 263.563L312.224 266.298L313.077 269.023L307.355 280.182L306.817 282.534L307.001 283.658L309.573 285.02L310.362 286.23L309.313 286.198L308.09 285.544L307.259 285.072L305.229 284.528L303.627 282.255L301.838 284.04L301.578 284.623L300.577 287.026L299.705 290.133L300.964 292.064L300.534 292.602L299.344 293.032L298.661 293.269L295.639 293.306L294.602 294.102L293.06 298.53L293.294 300.09L294.879 300.361L295.076 300.913L287.414 301.683L287.426 300.186L283.383 300.103L280.253 301.684L278.341 303.342L277.151 303.772L275.667 306.888L274.41 307.204L274.117 307.298L273.811 308.56L270.709 310.052L269.729 311.787L268.127 312.7L267.671 313.655L262.6 315.463L256.084 319.729L252.063 319.573L250.666 320.946L248.516 320.792L247.835 320.36L247.802 319.603L246.977 319.708L245.843 318.828L244.115 318.691L243.001 319.737L240.257 320.327L239.878 318.975L238.378 317.5L237.321 316.37L237.113 317.314L238.095 318.422L239.018 320.321L238.601 320.553L239.414 321.349L236.245 323.589L235.717 324.448L227.487 332.247L225.862 336.151L225.697 336.357L224.954 338.249L220.176 340.561L217.696 343.142L216.654 344.283L215.882 345.075L215.088 345.609L214.648 345.916L213.311 346.229L213.023 346.306L208.61 348.292L206.235 349.998L200.585 357.739L197.655 359.796L195.156 360.451L192.343 362.194L191.587 362.337L188.841 362.6L184.505 364.931L183.169 366.168L181.125 368.789L180.385 370.338L179.583 372.619L177.127 373.133L176.834 373.227L175.573 373.888L174.113 374.668L172.808 375.144L169.799 374.011L168.485 374.58L167.587 374.59L165.456 375.766L162.49 376.219L159.213 377.682L159.011 379.204L158.565 381.85L159.492 383.671L161.996 386.185L163.805 386.919L166.249 387.903L167.655 389.355L166.796 391.89L163.371 394.964L162.176 395.145L161.442 394.622L160.884 392.128L159.5 390.607L157.1 388.946L156.637 388.666L154.933 386.462L153.516 385.91L149.771 386.579L149.119 387.576L149.014 389.045L150.373 390.984L150.474 391.182L150.165 392.522L150.393 393.504L150.549 394.122L150.712 393.59L151.475 391.701L151.535 390.642L151.605 389.816L150.911 388.632L150.427 388.752L149.636 388.213L150.092 387.587L151.797 386.872L153.38 386.951L154.437 387.483L155.523 389.445L159.161 392.839L159.741 395.259L159.843 395.787L161.12 396.532L162.527 396.255L163.767 395.994L165.467 395.028L168.187 392.262L168.982 388.808L168.714 387.891L166.967 386.425L164.571 385.879L163.647 385.708L162.078 384.193L161.534 383.644L162.764 381.957L168.573 380.593L172.665 378.197L176.746 377.293L177.828 375.49L181.93 373.92L184.166 370.679L185.301 369.831L188.073 369.479L189.577 368.557L190.305 368.503L192.647 368.362L193.348 367.801L194.68 366.91L195.137 366.879L202.554 365.446L203.793 365.185L207.457 363.323L208.663 362.573L210.216 361.491L210.826 359.235L213.968 356.487L214.855 355.054L217.447 353.502L217.97 352.394L218.09 349.085L218.214 348.945L218.352 348.828L219.413 347.692L220.035 348.778L219.927 350.326L219.863 350.865L219.833 350.896L219.044 352.009L219.247 352.408L219.471 352.871L220.149 354.243L220.162 354.267L220.177 355.347L220.173 355.557L219.227 357.78L219.216 357.816L219.064 358.178L219.096 358.204L219.805 359.145L220.635 359.156L220.649 359.177L220.657 359.22L220.98 359.69L221.06 359.827L220.99 359.923L220.424 360.905L219.662 361.468L219.012 361.928L217.756 362.84L217.545 363.395L217.273 364.016L217.3 364.061L217.687 364.722L217.7 364.745L218.302 364.309L218.952 363.849L218.72 364.404L219.129 365.128L220.603 364.102L220.748 364.294L220.742 364.312L220.123 366.066L219.048 365.989L217.258 365.855L215.81 365.736L214.939 366.252L214.957 366.66L214.96 367.313L214.967 367.354L215.251 367.622L215.932 368.321L216.754 369.157L215.764 370.793L215.282 371.566L215.253 371.597L215.246 371.883L215.243 371.959L215.182 372.557L215.214 372.585L215.764 373.443L216.879 375.182L216.718 375.638L214.289 375.004L214.27 374.999L214.113 376.572L214.088 376.853L214.083 376.869L215.035 379.469L214.807 380.675L214.512 381.902L214.759 382.621L214.882 383.018L215.152 383.993L213.084 384.436L211.448 385.591L210.626 386.811L209.064 389.119L209.046 389.308L209.005 389.643L208.922 390.178L208.941 390.183L210.186 391.361L211.1 393.488L211.095 393.504L211.016 393.963L210.797 394.941L209.39 397.139L209.158 397.499L208.292 398.861L208.265 399.814L208.226 400.072L208.101 401.21L208.07 401.509L207.97 402.5L208.2 403.272L208.317 403.687L207.701 404.501L204.279 405.313L204.193 405.328L204.169 405.341L204.15 405.336L203.891 405.516L203.22 405.912L203.229 405.951L203.273 407.729L203.267 407.749L202.638 408.54L202.12 408.171L198.194 412.283L196.636 410.465L190.786 414.217L188.109 411.406L186.628 414.773L178.136 412.152L171.865 417.807L168.578 415.524L163.703 417.886L158.674 417.767L158.179 424.355L160.561 427.797L158.353 434.464L163.856 438.741L161.975 439.37L160.93 444.234L155.516 446.895L157.719 452.381L154.407 455.085L152.016 454.79L152.416 452.094L147.536 450.363L149.337 445.95L145.418 443.939L142.684 443.896L140.462 448.024L132.04 448.554L132.949 446.455L128.957 443.022L131.631 434.638L129.141 434.067L127.833 430.836L122.442 429.908L119.279 428.35L111.286 435.043L105.435 431.901L103.832 434.275L101.228 432.617L103.42 440.194L101.193 440.557L100.141 446.305L97.9384 447.385L96.0581 447.745L91.5221 445.224L89.0984 442.117L94.1859 440.254L97.9945 434.802L97.027 432.452L90.2713 435.442L85.9881 432.893L81.2975 432.865L80.2843 429.271L78.2343 428.991L65.9666 435.228L60.0869 434.169L57.222 431.041L52.7824 434.306L46.3802 422.815L42.8305 420.196L38.1869 426.38L38.8277 430.393L43.0589 434.504L42.1934 437.326L43.5768 439.712L39.785 439.407L37.9294 441.08L35.9098 438.445L32.5758 441.488L32.0225 439.247L25.5648 445.908L21.2422 446.67L19.5326 440.97L17.829 439.361L15.3539 441.329L18.0699 433.934L15.4676 431.144L12.9277 432.46L14.6753 428.819L12.3936 425.846L14.4325 422.648L9.75606 418.86L2.13146 419.179L1.8819 416.213L14.126 408.395L13.9362 406.693L8.20714 396.92L10.7718 395.589L9.26396 389.828L15.8578 386.835L15.6047 379.835L20.409 380.354L23.5868 375.234L28.1307 372.822L27.436 368.124L30.5851 364.225L30.4465 358.907L32.481 355.458L40.8352 351.303L38.6203 346.984L38.7062 337.752L41.7623 333.559L41.0152 329.363L37.1155 324.17L36.6108 320.312L39.2197 319.897L42.8495 323.383L46.8128 319.416L47.1106 313.87L42.7757 307.179L46.1468 304.28L45.539 302.216L50.6482 300.282L52.4607 294.374L52.7061 294.171L51.2507 289.631L46.8282 290.52L45.8285 288.872L42.3851 271.781L38.5265 272.821L40.7889 264.518L38.6793 255.811L34.1947 248.215L36.6756 241.852L43.658 243.03L45.3174 241.4L44.3444 239.068L42.4869 239.089L44.3027 235.159L38.6982 226.571L35.6234 225.056L37.6524 221.625L35.8021 218.439L39.4934 213.9L44.0292 217.881L47.0172 211.92L46.0996 205.628L47.3721 203.204L51.4989 202.483L52.8266 196.697L50.9686 196.122L53.0743 193.038L55.1005 192.467L59.9302 196.949L65.5622 197.688L73.1722 188.995L83.5149 190.823L85.2776 187.995L81.7905 183.182L83.5044 179.916L82.3662 173.812L82.1526 172.718L86.1681 165.132L80.2897 160.621L84.4189 154.123L83.9954 149.668L88.2768 139.757L88.6222 137.238L83.4285 133.082L84.9448 131.587L84.3375 128.659L86.2395 129.687L87.5643 129.082L86.4148 127.392L90.8546 127.64L90.5028 122.686L87.943 120.62L92.5124 115.87L93.535 114.858L95.1915 116.686L101.301 114.08L103.615 116.082L105.565 118.081L109.09 125.691L115.241 127.589L122.508 133.607L125.683 132.806L127.332 140.429L130.969 139.846L136.443 135.267L134.554 141.423L137.36 140.101L144.978 141.526L150.229 138.269L150.886 140.769L151.622 137.51L146.772 131.103L142.056 116.436L135.071 118.981L129.806 116.185L132.89 109.909L135.07 107.978L138.065 109.222L139.799 107.613L139.827 107.524L139.32 106.524L142.813 101.239L142.894 98.9181L139.401 97.0413L134.689 98.5436L135.484 92.1706L133.899 89.8448L136.806 88.7229L138.152 84.0717L140.153 83.0526L139.43 79.3067L140.891 78.3923L139.588 73.9532L140.471 69.9462L132.508 72.2291L132.102 67.4541L134.381 63.2068L122.661 61.2933L125.971 57.4008L125.987 57.3476L130.494 58.3057L131.129 58.2261L132.102 58.2354L132.836 58.165L135.667 56.4276L136.204 56.6674L136.068 57.3778L137.404 57.0658L138.262 57.7163L138.817 57.3675L139.305 56.9031L140.141 57.6264L139.953 58.5724L140.641 59.1811L140.865 57.3212L139.997 55.8405L138.797 55.4421L138.21 54.4398L137.672 54.4685L136.612 55.6035L136.026 55.5233L137.113 53.9711L138.079 53.4063L138.955 53.4682L140.525 54.9833L143.338 56.1594L144.733 56.7829L149.97 59.0098L155.043 60.0447L162.209 60.2924L166.096 59.4906L170.37 57.8919L174.073 55.3702L175.555 55.1145L176.218 55.5416L176.083 56.5787L173.529 57.1445L172.241 57.894L172.126 58.5352L173.834 60.9899L174.113 62.7351L175.197 63.1792L174.981 64.2157L175.621 64.7138L176.522 64.6287L177.366 63.9332L180.673 65.4893L180.745 65.5854L180.607 66.2993L179.347 66.9601L179.823 68.259L179.868 68.4439L179.416 69.3212L179.79 70.4201L180.881 72.0373L182.56 71.7382L182.642 70.011L182.682 69.3514L182.703 69.2804L182.296 67.4241L181.313 66.5845L180.966 65.3951L181.014 65.2372L179.983 64.8841L180.414 64.0778L182.417 64.7105L183.808 65.0832L184.541 65.2796L185.867 66.4606L186.898 67.409L188.401 68.8102L188.207 69.1787L187.852 69.7383L186.646 71.6809L187.51 72.9091L188.198 72.9225L189.552 72.2868L189.982 71.4805L189.635 70.8882L188.521 71.3385L189.314 69.8786L189.549 69.4443L189.571 69.3733L189.49 68.1802L189.782 67.7574L191.423 69.3703L192.525 69.4927L194.825 68.3616L194.965 67.5735L193.49 66.6772L194.319 66.2292L195.927 66.1607L196.352 64.7767L197.929 64.2776L198.359 63.4713L198.423 62.0676L195.856 61.5506L192.62 64.2761L190.024 65.5774L189.397 65.5632L188.344 65.5497L186.922 64.7463L186.624 63.9943L187.102 63.2969L187.819 64.1419L188.525 63.8299L188.193 61.9954L188.286 61.6938L188.755 59.8993L192.542 58.4948L194.151 58.7531L194.656 58.2354L193.873 57.6033L191.968 57.5152L189.447 58.8367L190.309 56.8211L193.05 55.7121L192.898 55.345L190.131 55.6788L188.882 57.7616L187.981 57.8467L186.751 56.6166L186.697 55.9301L186.738 55.267L185.302 55.3065L185.124 54.7578L185.411 54.0878L186.069 54.2641L186.478 53.5287L185.233 52.9436L183.831 54.0675L181.982 54.5898L183.518 52.2362L183.094 51.297L181.574 50.2176L181.214 50.198L180.736 52.0862L179.191 52.7474L178.142 52.7162L176.372 53.9123L176.415 52.5778L175.694 51.8106L175.883 50.8627L178.391 48.1934L179.321 46.0233L179.163 44.4831L177.829 42.532L177.219 42.4646L175.416 42.3061L175.334 41.7101L177.021 39.9922L181.057 38.9038L182.766 37.115L183.417 35.5229L183.163 34.6272L181.762 33.7546L181.81 33.2681L183.236 32.4002L183.886 30.8098L184.192 30.143L186.866 29.7823L192.563 31.637L195.682 32.1445L198.142 31.8839L199.399 30.9706L199.59 30.9449L203.626 29.8585L204.512 30.7471L204.629 32.6216L204.09 34.9754L210.962 38.2358L214.426 41.3356L214.957 43.6478L217.08 43.2948L218.242 45.2767L222.12 46.1622L223.614 47.06L223.157 47.6882L223.776 48.2573L225 49.5069L228.145 50.1943L230.405 49.1291L233.017 49.8292L233.951 50.8302L235.173 50.5604L236.515 51.69L244.304 55.6779L247.601 56.7341L249.229 58.9179L252.597 59.7435L255.073 61.1557L257.034 62.2554L259.203 63.0095L261.348 62.914L262.798 64.2241L265.085 63.6656L268.467 61.325L269.27 60.6972L270.233 59.2844L270.368 58.2455L269.138 57.4165L270.619 56.5653L271.071 55.6881L273.886 54.2724L275.519 52.4634L276.068 50.9398L276.312 50.41L274.983 46.9817L273.712 46.2186L273.104 46.2095L272.25 46.0766L271.241 45.0572L270.22 44.9372L269.886 40.8538L270.207 38.943L272.332 36.5917L275.212 34.6964L277.313 32.4921L280.202 31.0984L280.576 32.1973L279.038 34.6269L277.416 38.4551L277.4 39.6991L275.785 41.1863L275.649 42.2252L275.578 42.4559L275.117 42.8316L275.029 43.9794L279.906 54.5414L283.467 60.5071L292.924 74.639L296.19 79.5082L301.305 84.719L303.771 87.9529L307.626 90.9058L312.545 96.4868L317.183 100.399L321.065 103.858L323.999 104.971L324.878 104.957L326.33 106.592L329.404 107.513L339.184 113.629L342.907 113.628L343.346 113.323L347.177 111.181L347.293 111.135L348.318 110.911L350.379 110.292L351.916 110.454L354.829 109.314L357.903 109.639L360.944 109.206L363.628 109.675L368.695 112.454L372.575 113.069L375.504 111.014L376.581 109.229L377.554 109.24L380.471 110.674L385.739 111.337L391.742 112.792L399.935 113.47L400.637 113.505L402.707 113.387L405.554 113.324L406.162 113.065L407.716 112.31L408.243 111.453L411.249 110.012L412.408 108.556L412.609 107.035L417.398 103.228L417.766 103.156L417.842 103.771L417.597 106.029L416.537 107.761L416.503 108.998L417.329 108.626L417.846 106.345L418.798 104.699L418.941 103.968L418.545 103.535L418.881 103.301L419.348 103.503L419.571 103.639L423.852 103.212L425.7 102.958L428.227 102.212L429.157 100.044L429.858 99.4829L430.285 100.346L430.867 100.502L433.159 100.195L434.68 101.601L435.316 101.848L437.174 102.689L440.1 105.818L439.887 106.51L438.275 106.327L437.455 106.682L437.362 106.983L437.056 108.247L437.061 108.496L437.87 111.96L438.977 112.927L438.64 113.76L439.236 114.669L438.224 116.241L438.95 120.506L439.934 121.941L439.362 123.209L439.536 124.101L440.411 123.239L441.122 123.506L441.321 123.984L442.472 127.46L442.745 128.031L443.531 128.318L443.788 127.813L444.292 126.7L443.999 126.197L443.304 125.014L442.991 123.183L443.222 119.577L442.086 117.18L442.088 115.184L442.884 108.811L443.842 106.55L444.166 102.643L442.247 103.129L441.133 104.175L440.697 104.135L440.665 103.377L442.33 101.73L444.345 100.6L445.737 98.6491L445.929 98.3549L448.185 97.6326L448.383 97.5149L450.677 95.8062L451.414 93.7377L451.702 93.0641L452.544 92.0435L452.983 91.7388L454.137 90.8958L459.654 87.0342L459.914 85.8575L461.246 84.6975L464.673 79.0296L467.05 72.4083L467.312 71.5549L467.224 70.3812L465.895 69.2762L465.135 68.5713L465.966 68.4502L465.933 67.6927L464.39 66.3575L464.594 65.1639L464.446 65.0476L463.247 64.3806L463.61 63.729L465.893 63.5151L467.288 64.1386L470.353 63.366L471.113 64.3359L471.967 64.4705L472.599 66.3874L475.35 64.0522L477.725 62.9412L479.397 59.5487L478.852 58.4044L479.159 57.7376L480.256 57.6091L480.381 57.4678L480.854 56.5213L480.61 53.5372L481.178 52.0187L479.829 50.3133L478.168 50.2907L477.387 50.2522L476.07 49.306L475.131 48.6513L474.366 47.102L473.034 47.9934L471.986 47.9622L469.64 47.2566L469.123 46.619L469.461 46.381L471.352 45.1213L473.079 44.6643L473.639 44.5647L473.731 44.263L474.064 43.7742L473.032 42.8276L473.266 42.0647L475.364 41.8586L477.179 40.5187L477.5 38.608L478.686 37.6603L479.452 36.291L478.425 35.5934L479.33 33.8388L481.154 32.7338L482.344 32.899L484.35 31.2668L485.301 31.3489L485.769 32.1461L486.603 32.5426L489.211 32.3965L491.359 30.3029L494.162 30.382L497.12 29.4272L498.9 29.3281L503.016 26.9171L504.999 25.029L508.078 21.3589L511.959 14.144L513.005 11.3327L513.847 10.3103L514.347 8.94652L514.587 8.16581L514.561 6.25813L512.911 4.14531L514.932 3.59052L519.163 5.64776L524.02 3.60809L525.662 2.30068L526.663 2.81665L528.144 1.96735L529.97 4.70313L530.078 6.07614L532.44 8.45633L534.688 9.48132L535.41 10.5772L535.216 10.9456L537.638 9.3499L539.594 7.28197L541.388 9.26025L545.032 10.9088L547.045 15.2885L551.249 19.1588L551.36 20.189L550.605 20.6589L550.089 20.0213L549.602 20.2171L547.577 25.3584L550.546 30.0709L550.257 30.4142L552.277 32.7815L552.831 35.0228L554.442 37.5284L559.184 39.0467L559.413 40.9516L556.13 44.1617L555.367 45.4568L554.159 46.2086L554.231 46.5734L555.208 46.8353L553.984 48.5043L554.273 48.7546L555.703 47.5439L556.1 45.6532L556.916 44.4492L559.508 42.8971L562.351 42.3167L563.92 43.2363L564.529 43.5724L566.146 44.0055L567.554 44.0564L568.767 43.2869L569.89 43.3383L570.699 44.1502L573.122 42.2841L573.639 42.92L575.02 42.4661L576.338 42.7426L577.486 43.3767L581.28 47.3888L581.162 48.1059L580.629 48.3854L581.405 50.7614L582.294 51.5775L583.534 51.5813L584.805 52.3462L586.629 51.8366L587.182 53.4825L588.058 54.1398L588.219 55.0085L586.936 58.3302L588.255 58.9354L587.977 60.7042L586.282 61.9187L586.075 63.1901L586.708 65.7023L584.584 65.1332L584.308 63.7131L583.401 63.2205L582.723 64.0391L583.705 64.5518L583.249 65.1766L583.103 65.3871L583.253 65.4274L584.4 65.7346L586.41 67.8672L587.621 66.7725L590.575 67.4873L592.249 66.9374L592.907 67.1137L592.841 67.5933L591.94 68.2756L592.125 69.3984L592.847 68.7681L595.393 69.3543L595.866 70.4007L594.789 72.7832L594.795 73.3608L594.585 76.8954L593.608 77.2288L593.623 78.3081L594.84 78.3846L596.215 79.6745L596.131 80.476L595.475 81.2236L594.924 81.825L594.397 82.6822L591.9 86.7753L592.884 87.613L594.977 87.7533L596.341 85.2961L595.576 84.3422L595.745 83.7922L595.859 82.8242L596.577 81.9414L596.888 81.5254L598.404 78.8383L596.754 77.054L597.771 76.9214L596.276 75.4283L597.169 74.8398L596.527 73.7482L596.349 73.2012L596.49 72.4113L596.947 72.1134L597.05 72.0448L597.484 71.7578L599.022 72.2469L601.243 72.168L601.878 72.6856L603.157 72.0299L604.405 71.9418L603.467 71.0185L602.617 71.1365L602.223 70.4335L602.657 69.8798L601.99 69.2018L601.811 68.3281L600.799 69.3051L599.778 69.4519L598.622 68.6449L598.27 67.8017L598.705 67.2444L600.068 66.5169L601.335 67.0291L602.066 66.8988L600.764 65.7051L599.086 66.0042L598.047 66.4745L597.835 67.1648L596.666 67.5256L594.678 68.239L594.081 67.3321L594.266 66.1318L593.67 65.225L594 63.8158L594.049 63.6561L594.626 63.2346L598.45 62.8383L600.995 61.7709L601.474 60.8067L600.324 57.9236L600.508 56.7267L604.05 57.5799L607.403 56.7309L606.707 58.1381L606.886 59.0118L605.651 59.257L605.364 60.5242L606.144 62.5574L611.351 69.7898L612.164 70.8508L616.802 74.1673L619.584 74.9127L621.317 75.8972L622.756 75.5149L625.271 76.5344L627.759 76.7787L631.187 78.8684L636.558 80.0581L639.851 80.2664L640.211 80.2861L642.084 79.6185L643.704 78.3821L643.747 77.6448L644.612 76.5514L648.187 75.8388L648.471 74.6476L649.27 74.3626L652.284 76.3415L653.185 76.2565L654.077 75.0744L656.293 75.3419L660.629 74.737L662.603 75.2659L667.825 78.9311L668.83 79.1043L670.38 78.6922L671.368 77.4611L672.107 78.2351L671.842 78.8342L672.53 79.4429L672.918 79.3721L675.492 78.7389L678.017 79.9914L680.722 80.3899L682.012 79.9655L683.357 80.4237L684.897 78.321L685.821 78.4918L686.76 80.3371L685.153 85.2446L686.07 87.161L685.765 88.1546L687.255 88.8033L689.216 86.9862L690.867 86.7758L693.96 87.1052L696.513 86.5412L698.007 86.8454L700.691 84.9916L701.024 84.2361L701.172 82.0292L701.211 80.4457L699.908 79.5205L700.484 78.5037L700.549 77.0982L702.482 78.2901L706.57 75.6411L707.12 74.4445L706.546 72.8695L707.637 72.1634L708.403 70.7923L708.029 70.022L708.943 68.769L706.777 66.3454L707.543 64.9761L710.46 64.0871L711.592 62.7198L710.583 61.6986L710.991 60.965L713.087 61.0276L713.934 60.256L715.1 57.6497L715.903 57.2868L717.055 58.7689L717.128 60.7854L717.698 61.5142L719.276 61.6104L721.192 63.1224L721.348 63.7403L724.716 64.5659L727.363 63.4317L728.205 62.4093L729.946 61.9733L730.452 61.1853L731.598 60.899L732.57 59.9861L733.515 60.0859L734.531 59.3615L734.452 58.4934L735.885 58.1306L736.43 56.9499L737.69 56.2909L738.548 56.3478L738.417 57.6358L738.785 58.1589L739.699 59.8227L740.58 60.1354L742.915 60.0143L744.517 59.3682L746.356 58.0174L747.176 57.0661L747.48 55.7438L748.746 55.6625L749.394 54.4132L748.926 53.6177L750.059 50.2539L753.037 48.3059L753.146 46.4918L755.967 46.2491L756.406 45.9444L758.438 44.4919L759.411 44.503L760.053 45.5947L759.877 47.2967L757.693 48.382L757.363 47.468L755.247 49.7237L754.319 49.8957L754.52 50.7002L754.09 51.5066L754.632 51.7287L755.214 51.8848L756.486 49.1339L758.992 49.6518L760.182 49.22L760.529 49.814L760.37 50.5971L760.251 51.3142L759.021 52.4056L757.183 56.675L756.308 56.94L755.667 58.7651L757.046 57.3872L757.989 56.9659L758.357 57.489L757.603 62.2025L757.783 63.6716L757.446 63.9078L757.802 65.597L758.136 64.8397L758.987 64.3208L759.596 64.6567L760.053 64.0303L760.906 63.8363L762.205 62.1875L763.082 62.2476L762.961 62.6398L763.804 61.6174L762.771 60.3422L763.071 58.5024L763.675 57.9921L764.749 58.2032L766.32 60.0451L766.858 60.0164L766.805 59.3281L765.501 57.8093L762.492 56.6766L762.17 55.6688L762.79 54.51L765.069 52.8528L766.605 53.0167L767.632 53.7143L768.207 55.2892L770.679 56.7775L771.336 56.627L770.468 55.1462L770.348 54.9412L769.344 55.0949L768.49 54.3665L767.433 50.9151L766.363 50.9548L765.591 51.7465L764.706 51.183L764.363 50.8415L764.461 50.5221L764.815 49.9642L763.903 48.2969L764.159 47.1961L765.137 47.458L766.125 48.5484L767.777 48.6648L770.476 47.8903L770.95 46.3448L772.131 45.4149L774.537 44.466L774.435 43.9393L775.365 41.7673L775.234 40.7356L774.18 40.1267L776.257 38.2638L778.197 37.7084L780.24 39.4058L782.597 38.6184L783.045 37.4903L780.186 36.3979L777.875 34.1848L778.456 34.0141L779.416 34.5978L780.627 34.0967L778.988 33.4077L777.646 33.4707L776.565 32.0866L775.864 32.6477L775.348 32.6054L775.273 31.9881L776.332 30.5263L777.333 28.1255L777.08 27.5584L775.324 26.9152L775.438 25.9454L774.651 25.0643L775.658 23.8365L774.919 22.467L776.855 21.6607L777.088 20.3025L778.007 19.6271L778.357 18.2229L779.328 17.9072L779.941 17.8986L781.551 18.1552L782.859 17.6052L783.774 16.6789L783.697 15.7366L784.296 14.9755L784.067 13.6661L784.893 13.5609L786.771 11.2202L788.693 10.9884L789.707 12.8539L791.565 13.4286L792.267 12.8657L793.467 13.8613L794.711 13.8491L796.032 14.4525L798.025 13.9882L799.547 12.4758L800.38 10.3564L804.053 7.26979L804.762 4.69289L805.159 3.39937L807.257 3.7887L807.935 2.97006L808.886 3.05391L810.77 3.80839L810.269 7.76225L810.997 7.70967L811.91 8.77986L814.403 9.87031L814.63 10.5243L813.917 11.9866L814.26 12.9234L815.536 13.9373L814.155 14.393L814.775 16.1528L815.544 16.7621L816.348 17.3232L816.044 18.9105L813.634 21.2622L813.739 22.1158L813.109 22.4444L812.46 23.3669L812.991 25.0837L813.433 26.2948L812.562 26.8123L813.68 29.2047L815.028 30.3129L813.542 32.2382L814.252 35.6946L817.607 42.9282L819.034 43.7137L820.022 45.9966L821.836 46.9818L824.176 47.1098L824.785 46.8486L825.52 47.3719L825.621 48.169L826.702 48.9577L826.93 50.2672L827.918 51.3575L829.048 52.5819L830.66 52.1689L832.323 53.7091L835.435 52.45L836.456 52.57L835.789 54.2153L836.884 56.6786L838.916 58.1449L839.652 60.5885L840.338 61.2696L842.167 61.608L842.836 62.9395L844.724 64.2134L850.092 64.8837L851.016 65.0545L852.418 63.9324L852.12 63.1805L852.501 62.2052L856.701 60.9132L856.789 59.7654L856.313 58.4665L855.336 55.8813L855.552 54.8448L856.684 53.4757L857.951 51.0711L860.506 48.5089L861.532 48.0175L862.359 48.8345L863.069 48.7751L863.761 47.7125L865.778 46.9086L869.928 47.7709L871.921 47.3066L874.486 48.1647L877.535 46.3146L878.697 47.6993L879.575 47.687L879.767 47.6596L880.662 46.7301L883.048 47.043L885.163 46.5152L886.27 47.4819L885.888 48.1304Z" stroke="#022A3A" stroke-opacity="0.5" stroke-width="2"/>
</svg>
