<svg width="24" height="24" viewBox="0 0 24 24" fill="none" xmlns="http://www.w3.org/2000/svg">
<path fill-rule="evenodd" clip-rule="evenodd" d="M4.35941 5.06033C4.36141 5.06033 4.31141 5.11233 4.24841 5.17433C4.00641 5.40933 3.50541 5.89833 3.50036 6.92133C3.49241 8.35233 4.43341 11.0093 8.96441 15.5393C13.4744 20.0473 16.1274 20.9993 17.5614 20.9993H17.5824C18.6054 20.9943 19.0934 20.4923 19.3294 20.2513C19.4014 20.1773 19.4594 20.1233 19.5004 20.0893C20.4964 19.0873 21.0064 18.3413 21.0015 17.8633C20.9944 17.3753 20.3874 16.7983 19.5484 16.0003C19.2814 15.7463 18.9914 15.4703 18.6854 15.1643C17.8924 14.3733 17.4994 14.5083 16.6354 14.8123C15.4404 15.2313 13.8004 15.8013 11.2524 13.2523C8.70041 10.7023 9.27141 9.06433 9.68941 7.86933C9.99141 7.00533 10.1294 6.61133 9.33541 5.81733C9.02441 5.50733 8.74541 5.21333 8.48841 4.94333C7.69541 4.10933 7.12341 3.50633 6.63841 3.49933H6.63041C6.15141 3.49933 5.40741 4.01133 4.35441 5.06433C4.35741 5.06133 4.35841 5.06033 4.35941 5.06033ZM17.5624 22.4993C15.0704 22.4993 11.8214 20.5153 7.90441 16.6003C3.97241 12.6693 1.98541 9.41033 2.00033 6.91333C2.00941 5.26333 2.87441 4.41833 3.19941 4.10133C3.21641 4.08033 3.27441 4.02333 3.29441 4.00333C4.72841 2.56833 5.69541 1.98833 6.65741 1.99917C7.77441 2.01433 8.56941 2.85033 9.57541 3.90933C9.82441 4.17133 10.0944 4.45633 10.3954 4.75633C11.8554 6.21633 11.4394 7.40733 11.1054 8.36333C10.7414 9.40633 10.4264 10.3063 12.3124 12.1923C14.2004 14.0783 15.1004 13.7633 16.1394 13.3963C17.0964 13.0623 18.2844 12.6443 19.7464 14.1043C20.0424 14.4003 20.3234 14.6673 20.5824 14.9143C21.6464 15.9253 22.4864 16.7243 22.5006 17.8443C22.5124 18.7993 21.9324 19.7723 20.5004 21.2053L19.8664 20.7753L20.4024 21.2993C20.0854 21.6243 19.2414 22.4903 17.5904 22.4993H17.5624Z" fill="#D5D9DB"/>
</svg>
