<svg width="24" height="24" viewBox="0 0 24 24" fill="none" xmlns="http://www.w3.org/2000/svg">
<g clip-path="url(#clip0_1_499)">
<path d="M11.997 8.32835C9.97547 8.32835 8.32571 9.97814 8.32571 11.9998C8.32571 14.0214 9.97547 15.6712 11.997 15.6712C14.0186 15.6712 15.6684 14.0214 15.6684 11.9998C15.6684 9.97814 14.0186 8.32835 11.997 8.32835ZM23.0083 11.9998C23.0083 10.4794 23.0221 8.97285 22.9367 7.45526C22.8513 5.69254 22.4492 4.12813 21.1602 2.83915C19.8685 1.54741 18.3069 1.14805 16.5442 1.06266C15.0239 0.977282 13.5174 0.991054 11.9998 0.991054C10.4795 0.991054 8.97294 0.977282 7.45538 1.06266C5.6927 1.14805 4.12832 1.55016 2.83936 2.83915C1.54764 4.13089 1.14829 5.69254 1.06291 7.45526C0.977527 8.9756 0.991298 10.4822 0.991298 11.9998C0.991298 13.5173 0.977527 15.0267 1.06291 16.5443C1.14829 18.307 1.5504 19.8714 2.83936 21.1604C4.13107 22.4521 5.6927 22.8515 7.45538 22.9369C8.9757 23.0222 10.4822 23.0085 11.9998 23.0085C13.5201 23.0085 15.0267 23.0222 16.5442 22.9369C18.3069 22.8515 19.8713 22.4494 21.1602 21.1604C22.452 19.8686 22.8513 18.307 22.9367 16.5443C23.0248 15.0267 23.0083 13.5201 23.0083 11.9998ZM11.997 17.6487C8.87104 17.6487 6.3482 15.1258 6.3482 11.9998C6.3482 8.87369 8.87104 6.35081 11.997 6.35081C15.123 6.35081 17.6459 8.87369 17.6459 11.9998C17.6459 15.1258 15.123 17.6487 11.997 17.6487ZM17.8772 7.43873C17.1474 7.43873 16.558 6.84933 16.558 6.11945C16.558 5.38958 17.1474 4.80017 17.8772 4.80017C18.6071 4.80017 19.1965 5.38958 19.1965 6.11945C19.1967 6.29276 19.1627 6.46442 19.0965 6.62458C19.0303 6.78474 18.9331 6.93026 18.8106 7.05281C18.688 7.17536 18.5425 7.27253 18.3824 7.33875C18.2222 7.40498 18.0505 7.43895 17.8772 7.43873Z" fill="#D5D9DB"/>
</g>
<defs>
<clipPath id="clip0_1_499">
<rect width="24" height="24" fill="white"/>
</clipPath>
</defs>
</svg>
