<svg width="91" height="91" viewBox="0 0 91 91" fill="none" xmlns="http://www.w3.org/2000/svg">
<path d="M45.8132 40.895C45.6214 40.9985 45.5018 41.1953 45.5018 41.4093V44.7423H38.9208C38.5885 44.7423 38.3188 45.0057 38.3188 45.3303C38.3188 45.6549 38.5885 45.9183 38.9208 45.9183H45.5018V49.2512C45.5018 49.4661 45.6214 49.6629 45.8132 49.7656C46.005 49.8698 46.2394 49.8628 46.4248 49.7491L52.7947 45.8281C52.9697 45.7199 53.0756 45.5326 53.0756 45.3303C53.0756 45.128 52.9697 44.9406 52.7947 44.8324L46.4248 40.9115C46.3269 40.8519 46.2153 40.8213 46.1038 40.8213C46.0042 40.8213 45.9039 40.8464 45.8132 40.895Z" fill="#6190C0"/>
<path d="M47.662 5.13196C47.3945 5.21215 47.1135 5.27897 46.8192 5.33243C46.5249 5.39123 46.2172 5.42064 45.8961 5.42064C45.4305 5.42064 45.0238 5.35114 44.676 5.21215C44.3335 5.06781 44.0472 4.87269 43.8171 4.62679C43.5924 4.38088 43.4238 4.09488 43.3114 3.76879C43.199 3.44269 43.1429 3.09789 43.1429 2.73437C43.1429 2.34948 43.2017 1.99131 43.3194 1.65987C43.4425 1.32843 43.6218 1.03976 43.8573 0.79385C44.0927 0.547944 44.3844 0.355495 44.7322 0.216505C45.08 0.0721683 45.4841 0 45.9443 0C46.0459 0 46.1637 0.00534572 46.2975 0.0160372C46.4366 0.0267289 46.5811 0.0454393 46.7309 0.0721683C46.8807 0.0988972 47.0333 0.136318 47.1884 0.18443C47.349 0.227196 47.5015 0.283327 47.646 0.352822L47.662 0.42499L47.5256 1.29903H47.1644L47.1323 1.27497C47.1055 1.09321 46.9958 0.946206 46.8032 0.833944C46.6159 0.716337 46.3162 0.657533 45.9041 0.657533C45.6473 0.657533 45.4198 0.681589 45.2218 0.729701C45.0292 0.772467 44.8499 0.858 44.684 0.986299C44.5663 1.07718 44.47 1.18677 44.3951 1.31507C44.3201 1.43802 44.2613 1.57434 44.2185 1.72402C44.1757 1.8737 44.1462 2.0314 44.1302 2.19712C44.1141 2.36284 44.1061 2.52856 44.1061 2.69428C44.1061 3.02037 44.1489 3.31172 44.2345 3.56832C44.3255 3.82492 44.4486 4.04142 44.6038 4.21783C44.7589 4.39424 44.9409 4.53056 45.1496 4.62679C45.3637 4.71766 45.5938 4.7631 45.8399 4.7631C45.9148 4.7631 45.9951 4.76043 46.0807 4.75508C46.1717 4.74439 46.26 4.73103 46.3456 4.71499C46.4312 4.69895 46.5062 4.68024 46.5704 4.65886C46.6399 4.63748 46.6881 4.61609 46.7149 4.59471C46.747 4.57867 46.7657 4.55729 46.771 4.53056C46.7764 4.50383 46.7791 4.46909 46.7791 4.42632C46.7791 4.3889 46.7791 4.32742 46.7791 4.24189C46.7791 4.15636 46.7737 4.08953 46.763 4.04142C46.7523 3.90243 46.7229 3.79819 46.6747 3.72869C46.6319 3.65385 46.5945 3.60574 46.5623 3.58436C46.5142 3.54159 46.4419 3.51753 46.3456 3.51219C46.2493 3.50684 46.1583 3.50417 46.0727 3.50417L46.0326 3.47209L46.0085 3.13531L46.0245 3.10323C46.062 3.10323 46.1209 3.10591 46.2011 3.11125C46.2868 3.1166 46.3724 3.12194 46.458 3.12729C46.549 3.13264 46.6346 3.13798 46.7149 3.14333C46.8005 3.14867 46.862 3.15135 46.8995 3.15135H47.4614C47.4988 3.15135 47.5497 3.14867 47.6139 3.14333C47.6781 3.13798 47.745 3.13264 47.8145 3.12729C47.8841 3.12194 47.951 3.1166 48.0152 3.11125C48.0794 3.10591 48.1303 3.10323 48.1677 3.10323L48.1838 3.13531L48.1677 3.48813L48.1276 3.52021C47.9724 3.52021 47.8627 3.56565 47.7985 3.65652C47.7396 3.74206 47.7048 3.87036 47.6941 4.04142C47.6834 4.14834 47.6754 4.26327 47.6701 4.38622C47.6701 4.50383 47.6701 4.59204 47.6701 4.65084C47.6701 4.73103 47.6701 4.81923 47.6701 4.91546C47.6754 5.00634 47.6834 5.06514 47.6941 5.09187L47.662 5.13196Z" fill="#6190C0"/>
<path d="M51.9583 3.71561L51.7504 3.83706C51.4633 3.80416 51.1786 3.77421 50.8962 3.74723C50.6192 3.72085 50.3344 3.6909 50.042 3.65739L49.3881 3.58244C49.3785 3.619 49.3716 3.65587 49.3673 3.69305C49.3637 3.72492 49.36 3.75678 49.3563 3.78865C49.3405 3.92673 49.3485 4.06756 49.3805 4.21113C49.4125 4.3547 49.4726 4.48804 49.5608 4.61114C49.6549 4.72955 49.7778 4.83242 49.9293 4.91974C50.0815 5.00175 50.2719 5.05586 50.5005 5.08206C50.6653 5.10095 50.8405 5.09951 51.0262 5.07775C51.2178 5.05128 51.3976 5.01 51.5656 4.95393L51.6948 5.02524L51.6618 5.31203L51.572 5.39052C51.4328 5.4768 51.2331 5.55077 50.9729 5.61241C50.7179 5.67467 50.4469 5.68934 50.1598 5.65643C49.8781 5.62414 49.6254 5.54944 49.4019 5.43234C49.1842 5.31054 49.0001 5.15491 48.8495 4.96546C48.7042 4.77662 48.5971 4.55988 48.5283 4.31523C48.4647 4.07119 48.4495 3.80577 48.4824 3.51898C48.5159 3.22688 48.5943 2.96681 48.7174 2.73879C48.8406 2.51076 48.9943 2.32122 49.1786 2.17016C49.3683 2.01971 49.5802 1.90949 49.8145 1.83948C50.0541 1.77009 50.3042 1.75032 50.5647 1.78018C50.7029 1.79602 50.8549 1.83228 51.0208 1.88896C51.192 1.94625 51.3512 2.03714 51.4985 2.16164C51.6464 2.28083 51.7732 2.44333 51.8788 2.64915C51.985 2.84966 52.0444 3.10668 52.0569 3.4202L51.9583 3.71561ZM50.504 2.37858C50.2435 2.34872 50.0244 2.40431 49.8466 2.54536C49.6747 2.6817 49.5556 2.851 49.4893 3.05326L49.888 3.09896C50.0741 3.12029 50.2578 3.13865 50.4392 3.15406C50.6212 3.16416 50.8052 3.17987 50.9913 3.2012C51.0604 3.20912 51.113 3.19632 51.1492 3.1628C51.186 3.12397 51.2068 3.08331 51.2117 3.04082C51.23 2.88149 51.1684 2.73723 51.0271 2.60803C50.8857 2.47883 50.7113 2.40234 50.504 2.37858Z" fill="#6190C0"/>
<path d="M56.6461 3.53021L55.7861 3.33043C55.7158 3.63243 55.6478 3.91299 55.5819 4.17212C55.5225 4.42726 55.4704 4.65115 55.4256 4.84381C55.382 5.03126 55.3436 5.18425 55.3105 5.3028C55.2826 5.42256 55.2657 5.49545 55.2596 5.52149C55.2123 5.72456 55.2199 5.86902 55.2823 5.95487C55.3448 6.04072 55.4281 6.09575 55.5323 6.11997C55.6105 6.13813 55.7009 6.1509 55.8036 6.15829C55.9063 6.16567 55.9945 6.16422 56.0683 6.15393L56.0953 6.25074L55.9571 6.49031C55.7982 6.53573 55.6383 6.5617 55.4774 6.56824C55.3206 6.5812 55.1796 6.57315 55.0545 6.54409C54.7366 6.47023 54.5268 6.34467 54.4252 6.16739C54.3236 5.99012 54.2995 5.78693 54.3528 5.55783C54.3638 5.51097 54.3876 5.42045 54.4243 5.28629C54.4622 5.14691 54.5081 4.97369 54.5617 4.76663C54.6167 4.55436 54.6788 4.31085 54.7483 4.03609C54.8177 3.76134 54.89 3.46255 54.9652 3.13973L54.5586 3.04528L54.5364 2.99897L54.6164 2.65531L54.655 2.63134L55.087 2.61643C55.1258 2.44982 55.16 2.27938 55.1895 2.10513C55.2255 1.92689 55.2577 1.75325 55.2861 1.5842L55.3517 1.55006L55.463 1.56767C55.4995 1.57615 55.5496 1.58505 55.6133 1.59437C55.6823 1.6049 55.7539 1.61604 55.8281 1.62779C55.9035 1.63432 55.9737 1.63965 56.0386 1.64377C56.1088 1.64909 56.1608 1.65018 56.1945 1.64703L56.2575 1.69462C56.2012 1.81874 56.1397 1.98833 56.0732 2.20338C56.0079 2.41323 55.9528 2.61448 55.9079 2.80714L56.7789 2.96006L56.8107 3.00038L56.6943 3.50024L56.6461 3.53021Z" fill="#6190C0"/>
<path d="M64.1208 5.38031C64.0594 5.50504 64.0411 5.62709 64.0658 5.74646C64.0905 5.86584 64.144 5.98741 64.2262 6.11118C64.3108 6.23015 64.4157 6.35616 64.5411 6.48921C64.6664 6.62225 64.8002 6.76241 64.9423 6.90969C65.0822 7.06177 65.2124 7.2151 65.3331 7.36969C65.4562 7.51949 65.5506 7.67904 65.6163 7.84835C65.6893 8.01521 65.7251 8.19069 65.724 8.37479C65.73 8.55645 65.6822 8.75042 65.5807 8.9567C65.4768 9.16778 65.3415 9.33963 65.1749 9.47223C65.0106 9.60004 64.8209 9.68857 64.6059 9.73783C64.398 9.78464 64.1671 9.78738 63.9131 9.74604C63.664 9.70706 63.4049 9.62153 63.136 9.48944C62.8478 9.34792 62.5774 9.17042 62.3247 8.95694C62.072 8.74346 61.8635 8.51893 61.6991 8.28334L61.7164 8.17564L62.3566 7.29276L62.6808 7.45197L62.6955 7.51283C62.5614 7.858 62.5562 8.14732 62.6798 8.38079C62.8082 8.61661 63.0405 8.81708 63.3767 8.98219C63.708 9.14494 63.9765 9.2053 64.182 9.16329C64.3899 9.11647 64.5505 8.97793 64.6639 8.74766C64.7371 8.59894 64.7661 8.46128 64.7509 8.33467C64.7356 8.20806 64.687 8.08287 64.6048 7.9591C64.5274 7.83769 64.4224 7.71168 64.2899 7.58108C64.1574 7.45047 64.0128 7.30201 63.8561 7.1357C63.714 6.98843 63.5861 6.84225 63.4727 6.69717C63.3616 6.5473 63.2756 6.39486 63.2147 6.23987C63.161 6.08244 63.1384 5.91643 63.1468 5.74185C63.1552 5.56726 63.209 5.37923 63.3081 5.17774C63.5159 4.75558 63.8133 4.49659 64.2004 4.40076C64.5923 4.30729 65.0715 4.39972 65.6382 4.67804C65.8975 4.80541 66.1247 4.95571 66.3197 5.12893C66.5171 5.29736 66.6725 5.46009 66.7861 5.61712L66.7759 5.71042L66.2569 6.47416L65.9111 6.30433L65.8928 6.25066C65.9632 6.03502 65.9535 5.83665 65.8637 5.65556C65.774 5.47446 65.5994 5.32022 65.3401 5.19286C65.052 5.05133 64.8003 4.99922 64.5852 5.03652C64.37 5.07382 64.2152 5.18842 64.1208 5.38031Z" fill="#6190C0"/>
<path d="M70.1214 9.74345L69.3786 9.26657C69.2108 9.52741 69.0524 9.76881 68.9032 9.99078C68.7614 10.2111 68.637 10.4045 68.53 10.5709C68.4258 10.7328 68.3382 10.864 68.2672 10.9646C68.2007 11.068 68.1601 11.131 68.1457 11.1535C68.0329 11.3288 67.9914 11.4674 68.0213 11.5693C68.0512 11.6711 68.1112 11.7509 68.2012 11.8087C68.2688 11.852 68.3496 11.8944 68.4438 11.9359C68.5381 11.9773 68.6217 12.0055 68.6946 12.0206L68.6874 12.1208L68.4767 12.3001C68.3117 12.2895 68.1524 12.2603 67.9987 12.2125C67.8466 12.172 67.7166 12.1171 67.6085 12.0477C67.3339 11.8714 67.1786 11.6828 67.1426 11.4817C67.1065 11.2806 67.1521 11.0812 67.2794 10.8833C67.3055 10.8428 67.3584 10.7656 67.4381 10.6515C67.5207 10.533 67.6221 10.3852 67.7424 10.2082C67.8655 10.0267 68.006 9.81826 68.1638 9.5828C68.3216 9.34734 68.4902 9.0902 68.6696 8.81137L68.3185 8.58594L68.3132 8.53487L68.5041 8.23806L68.5485 8.22841L68.9604 8.3594C69.0529 8.2155 69.1425 8.06645 69.2289 7.91226C69.3228 7.75647 69.4115 7.60372 69.4951 7.45404L69.5684 7.44391L69.6673 7.49786C69.6988 7.51809 69.743 7.54329 69.7999 7.57348C69.8613 7.60655 69.925 7.64107 69.9909 7.67704C70.0597 7.70851 70.1241 7.73708 70.1839 7.76277C70.2482 7.79135 70.2967 7.80981 70.3295 7.81816L70.3729 7.88416C70.2781 7.98214 70.1632 8.12123 70.0282 8.30144C69.896 8.47715 69.7765 8.64821 69.6694 8.8146L70.4382 9.25101L70.4546 9.29967L70.1769 9.73139L70.1214 9.74345Z" fill="#6190C0"/>
<path d="M71.5136 14.7941C71.5565 14.767 71.6089 14.72 71.6706 14.653C71.7365 14.5894 71.7993 14.5337 71.8592 14.486L71.8682 14.4623C71.7677 14.4837 71.6606 14.4964 71.5469 14.5002C71.4373 14.5073 71.3245 14.5015 71.2085 14.4828C71.0926 14.464 70.9789 14.4298 70.8674 14.3802C70.7567 14.3381 70.6516 14.2764 70.5522 14.1952C70.4031 14.0734 70.2912 13.944 70.2166 13.8072C70.142 13.6703 70.0979 13.5341 70.0843 13.3987C70.0707 13.2633 70.0839 13.129 70.1237 12.9959C70.1678 12.8661 70.2338 12.7474 70.3219 12.6398C70.454 12.4784 70.6044 12.3665 70.773 12.304C70.9417 12.2415 71.1145 12.2204 71.2915 12.2406C71.4568 12.2583 71.6272 12.3077 71.8027 12.3889C71.9815 12.4659 72.1478 12.5499 72.3014 12.6409C72.4551 12.7319 72.5895 12.821 72.7048 12.9082C72.8234 12.9913 72.9013 13.0481 72.9386 13.0785L73.0256 13.1496C73.1265 13.0179 73.1995 12.9118 73.2446 12.8313C73.2932 12.7467 73.3274 12.6711 73.3474 12.6045C73.3778 12.4913 73.3631 12.3826 73.3032 12.2784C73.2509 12.1735 73.1667 12.0737 73.0507 11.9789C72.9803 11.9214 72.8985 11.865 72.8055 11.8097C72.72 11.7537 72.6302 11.7114 72.5361 11.6829C72.442 11.6543 72.3459 11.6449 72.248 11.6547C72.1577 11.6638 72.0745 11.7063 71.9985 11.7823L71.9584 11.7806L71.7595 11.6182L72.1812 10.989L72.2303 10.967C72.2755 10.9625 72.3452 10.9745 72.4393 11.003C72.5334 11.0316 72.6404 11.0741 72.7601 11.1304C72.8833 11.1827 73.0096 11.2479 73.1392 11.3261C73.2762 11.4036 73.4048 11.4913 73.525 11.5895C73.6865 11.7214 73.8208 11.8657 73.9278 12.0221C74.0382 12.1744 74.1109 12.3305 74.1459 12.4903C74.1851 12.6535 74.1846 12.8188 74.1444 12.9862C74.1075 13.1495 74.0247 13.3097 73.896 13.467C73.7571 13.6367 73.6365 13.7798 73.5341 13.8965C73.4359 14.0165 73.3424 14.1265 73.2535 14.2266C73.1647 14.3267 73.0776 14.4247 72.9921 14.5206C72.9142 14.6158 72.8261 14.7234 72.7279 14.8434C72.6583 14.9454 72.6127 15.0221 72.5913 15.0736C72.5698 15.1252 72.5635 15.1752 72.5721 15.2237C72.5782 15.2839 72.611 15.3452 72.6705 15.4076C72.7375 15.4693 72.8 15.5238 72.858 15.5712L72.8563 15.6112L72.696 15.8324L72.6695 15.8522C72.6058 15.7864 72.5301 15.7142 72.4424 15.6356C72.3546 15.557 72.2714 15.4856 72.1927 15.4213C72.0767 15.3265 71.9607 15.2318 71.8447 15.137C71.7253 15.0464 71.6104 14.963 71.5001 14.8866L71.5136 14.7941ZM72.0624 14.1237C72.0918 14.1131 72.1245 14.0985 72.1606 14.0797C72.2009 14.0642 72.2401 14.0375 72.2781 13.9995L72.7411 13.4972L72.6851 13.4516C72.5567 13.3467 72.4236 13.2517 72.2858 13.1668C72.1479 13.0818 72.0107 13.0215 71.874 12.9858C71.7373 12.9501 71.604 12.9482 71.4741 12.9802C71.3442 13.0123 71.2251 13.0945 71.1167 13.2269C71.0252 13.3386 70.9793 13.4496 70.979 13.5598C70.9828 13.6734 71.0323 13.7691 71.1276 13.8469C71.198 13.9045 71.2752 13.9537 71.3592 13.9947C71.4507 14.0349 71.5394 14.0659 71.6252 14.0877C71.7111 14.1095 71.7924 14.1241 71.8692 14.1316C71.9494 14.135 72.0138 14.1324 72.0624 14.1237Z" fill="#6190C0"/>
<path d="M76.244 15.4063C76.3542 15.3738 76.4719 15.3415 76.5973 15.3092C76.7263 15.2808 76.8553 15.2638 76.984 15.258C77.1128 15.2523 77.2375 15.2654 77.3581 15.2974C77.4825 15.3332 77.5931 15.4009 77.6901 15.5006C77.7199 15.5313 77.7515 15.5714 77.7849 15.6211C77.8258 15.6708 77.861 15.7223 77.8905 15.7757C77.9238 15.8328 77.9532 15.89 77.9789 15.947C78.0046 16.0041 78.019 16.0535 78.0222 16.0951L78.0268 16.1689L77.338 16.7034L77.0974 16.4562C77.1323 16.4 77.1485 16.3246 77.1461 16.23C77.1512 16.1356 77.1053 16.0385 77.0083 15.9389C76.9226 15.8507 76.8212 15.7925 76.7043 15.7644C76.5912 15.7326 76.476 15.7215 76.3585 15.7311C76.2411 15.7408 76.129 15.7675 76.0225 15.8114C75.9197 15.8515 75.8376 15.9014 75.7762 15.961L75.379 16.3466C75.2332 16.4882 75.1238 16.5944 75.0509 16.6651C74.9817 16.7398 74.9221 16.8051 74.8721 16.8611C74.7952 16.9507 74.7354 17.0273 74.6929 17.091C74.6579 17.1548 74.6419 17.215 74.6449 17.2718C74.6445 17.302 74.6534 17.3381 74.6717 17.3799C74.6976 17.4219 74.7254 17.462 74.7552 17.5002C74.7849 17.5384 74.8147 17.5729 74.8445 17.6035C74.8781 17.638 74.9042 17.6649 74.9228 17.684L74.922 17.7407L74.7432 17.9367L74.709 17.9475C74.6866 17.9245 74.6513 17.8843 74.6029 17.8269C74.5545 17.7695 74.5024 17.7083 74.4466 17.6432C74.3869 17.5819 74.3329 17.5225 74.2845 17.4651C74.2323 17.4114 74.195 17.3731 74.1726 17.3501L73.8146 16.9821C73.7885 16.9552 73.7475 16.9131 73.6915 16.8556C73.6355 16.8056 73.5776 16.75 73.5179 16.6886C73.4544 16.631 73.3928 16.5753 73.333 16.5216C73.2769 16.4716 73.2359 16.4332 73.2098 16.4064L73.2272 16.3783L73.4341 16.1998L73.4739 16.1947C73.5373 16.2598 73.5989 16.3193 73.6587 16.3731C73.7223 16.4231 73.7844 16.4486 73.8449 16.4495C73.9016 16.4541 73.9567 16.4416 74.0101 16.4121C74.0672 16.3865 74.1513 16.3272 74.2624 16.2343C74.3121 16.1934 74.3754 16.1357 74.4522 16.0612C74.5289 15.9867 74.6364 15.8824 74.7745 15.7482L75.1947 15.3403C75.2753 15.262 75.3425 15.1968 75.3962 15.1447C75.4538 15.0888 75.5018 15.0384 75.5403 14.9936C75.5825 14.9526 75.619 14.9135 75.6498 14.8761C75.6844 14.8426 75.719 14.8052 75.7536 14.7642C75.7845 14.7192 75.8098 14.6723 75.8294 14.6235C75.849 14.5746 75.859 14.5388 75.8593 14.5162C75.8719 14.4294 75.8541 14.3535 75.8058 14.2886C75.7575 14.2236 75.7036 14.1605 75.6439 14.0991L75.6446 14.0538L75.8403 13.8638L75.8799 13.87L75.9806 13.9735C76.0627 14.0578 76.169 14.1671 76.2995 14.3013C76.4339 14.4317 76.5553 14.5412 76.6638 14.6297L76.8883 14.803L76.8125 14.9437C76.7172 14.9915 76.618 15.0544 76.5147 15.1323C76.4151 15.214 76.3212 15.2977 76.2329 15.3834L76.244 15.4063Z" fill="#6190C0"/>
<path d="M80.723 20.1191L80.1838 19.4206C79.938 19.6099 79.7075 19.7841 79.4924 19.9431C79.2847 20.103 79.1025 20.2434 78.9457 20.3642C78.7932 20.4817 78.6665 20.5759 78.5658 20.6467C78.4683 20.7218 78.409 20.7675 78.3878 20.7838C78.2225 20.9111 78.1368 21.0278 78.1308 21.1337C78.1247 21.2396 78.1543 21.3349 78.2197 21.4196C78.2687 21.4831 78.3306 21.5502 78.4054 21.6208C78.4802 21.6914 78.5495 21.7461 78.6131 21.7848L78.5726 21.8768L78.3138 21.9749C78.162 21.9095 78.0218 21.8286 77.8931 21.7319C77.7635 21.6427 77.6595 21.5474 77.581 21.4458C77.3817 21.1875 77.2989 20.9577 77.3326 20.7562C77.3663 20.5547 77.4764 20.3822 77.6628 20.2386C77.701 20.2092 77.7767 20.1542 77.8902 20.0735C78.0079 19.9896 78.1531 19.8845 78.3259 19.7582C78.5029 19.6286 78.7053 19.4794 78.9332 19.3106C79.1611 19.1418 79.4064 18.9562 79.6691 18.7538L79.4142 18.4236L79.4264 18.3737L79.7061 18.1583L79.7511 18.1641L80.095 18.4257C80.2306 18.3213 80.3651 18.211 80.4984 18.0948C80.6392 17.9795 80.7741 17.8655 80.9032 17.7525L80.9757 17.7676L81.0506 17.8516C81.0735 17.8812 81.1067 17.9198 81.1501 17.9674C81.1968 18.0191 81.2452 18.073 81.2952 18.129C81.3494 18.1818 81.4004 18.2303 81.4481 18.2745C81.499 18.323 81.5385 18.3567 81.5666 18.3756L81.5853 18.4523C81.463 18.5128 81.308 18.6052 81.1202 18.7296C80.9366 18.8508 80.7665 18.9717 80.6097 19.0925L81.187 19.7616L81.1861 19.813L80.7793 20.1263L80.723 20.1191Z" fill="#6190C0"/>
<path d="M82.5571 25.1734L82.3339 25.0831C82.1847 24.8359 82.0346 24.5924 81.8835 24.3525C81.7353 24.1172 81.5851 23.8737 81.4331 23.6219L81.0932 23.0588C81.0584 23.0736 81.0249 23.0906 80.9929 23.1099C80.9654 23.1265 80.9379 23.143 80.9104 23.1596C80.7912 23.2314 80.6845 23.3238 80.5902 23.4367C80.496 23.5497 80.427 23.6787 80.3832 23.8236C80.3468 23.9704 80.3403 24.1304 80.3636 24.3036C80.3916 24.4741 80.4649 24.6577 80.5838 24.8546C80.6694 24.9965 80.7776 25.1342 80.9082 25.2678C81.0461 25.4032 81.1886 25.5202 81.3357 25.6189L81.3581 25.7646L81.1106 25.9137L80.9935 25.8906C80.8401 25.8332 80.6596 25.7203 80.4518 25.5521C80.2467 25.3884 80.0696 25.183 79.9204 24.9358C79.7739 24.6932 79.6789 24.4477 79.6352 24.1993C79.5988 23.9528 79.6098 23.7121 79.668 23.4773C79.729 23.247 79.8354 23.03 79.9873 22.8261C80.142 22.6268 80.343 22.4526 80.5905 22.3036C80.8425 22.1517 81.0965 22.0549 81.3525 22.0131C81.6084 21.9713 81.8526 21.9771 82.0849 22.0307C82.3199 22.0889 82.5368 22.1892 82.7353 22.3318C82.9366 22.479 83.105 22.6647 83.2404 22.889C83.3122 23.0081 83.3763 23.1505 83.4327 23.3163C83.4918 23.4867 83.517 23.6682 83.5082 23.8607C83.5041 24.0505 83.4527 24.25 83.354 24.4593C83.2599 24.6657 83.0924 24.8696 82.8515 25.071L82.5571 25.1734ZM82.729 23.2065C82.5936 22.9821 82.4157 22.8427 82.1953 22.7882C81.9823 22.7355 81.7753 22.7447 81.5745 22.8157L81.7818 23.1591C81.8785 23.3193 81.9761 23.4758 82.0747 23.6287C82.1778 23.7789 82.2777 23.934 82.3744 24.0943C82.4103 24.1538 82.4526 24.1876 82.5013 24.1957C82.5545 24.2011 82.5995 24.1928 82.6361 24.1707C82.7736 24.0879 82.8504 23.9511 82.8665 23.7604C82.8826 23.5696 82.8368 23.385 82.729 23.2065Z" fill="#6190C0"/>
<path d="M82.6433 29.7668C82.6774 29.7512 82.744 29.7297 82.8432 29.7021C82.9494 29.6771 83.0413 29.6528 83.1187 29.6292L83.1446 29.6086C82.8629 29.5844 82.6125 29.487 82.3934 29.3166C82.1792 29.144 82.0165 28.9362 81.9053 28.693C81.7831 28.4256 81.7251 28.1699 81.7313 27.9262C81.7397 27.6872 81.7942 27.4655 81.8948 27.2609C81.9954 27.0563 82.136 26.8747 82.3164 26.716C82.4968 26.5573 82.6989 26.4269 82.9229 26.3247C83.249 26.1759 83.5498 26.1004 83.8253 26.0981C84.1078 26.0985 84.3564 26.1467 84.5709 26.2428C84.7903 26.3367 84.975 26.464 85.1249 26.6247C85.282 26.7882 85.4017 26.9598 85.4839 27.1398C85.584 27.3586 85.6318 27.5983 85.6274 27.8589C85.623 28.1195 85.535 28.3711 85.3636 28.6139L85.3995 28.6152C85.5362 28.541 85.6776 28.4707 85.8236 28.404C85.9745 28.3352 86.1206 28.2686 86.2617 28.2042C86.4126 28.1353 86.5368 28.0787 86.6341 28.0343C86.7363 27.9876 86.8204 27.9464 86.8863 27.9104C86.9545 27.8793 87.0142 27.8491 87.0655 27.8198C87.1191 27.7954 87.174 27.7674 87.2301 27.7359C87.2766 27.7089 87.3151 27.6707 87.3455 27.6216C87.376 27.5724 87.3952 27.5372 87.4031 27.516C87.4256 27.4234 87.4285 27.3398 87.412 27.2651C87.3977 27.1952 87.3705 27.1165 87.3305 27.029L87.3464 26.9865L87.5873 26.8766L87.6299 26.8924L87.82 27.3082C87.8711 27.42 87.9244 27.5367 87.98 27.6583C88.0427 27.7825 88.1035 27.8899 88.1626 27.9805L88.3158 28.2191L88.1971 28.3262C88.1732 28.3253 88.1322 28.3323 88.0742 28.347C88.0233 28.3643 87.9676 28.3839 87.9069 28.4057C87.8485 28.4323 87.7914 28.4554 87.7357 28.475C87.6821 28.4994 87.6407 28.5183 87.6115 28.5316C87.5385 28.5649 87.4668 28.5947 87.3965 28.6209C87.3332 28.6498 87.2577 28.6842 87.1701 28.7242C87.0874 28.7619 86.9816 28.8072 86.8528 28.8601C86.7311 28.9156 86.5729 28.9878 86.3782 29.0766L84.7865 29.8028C84.582 29.8961 84.4165 29.9716 84.2899 30.0293C84.1705 30.0897 84.0694 30.1388 83.9866 30.1765C83.9061 30.2191 83.8342 30.2549 83.7709 30.2838C83.7147 30.3153 83.6439 30.3534 83.5585 30.3983C83.4754 30.448 83.4176 30.489 83.3854 30.5214C83.3553 30.5586 83.3359 30.5998 83.3271 30.6449C83.306 30.7016 83.3061 30.7662 83.3275 30.8387C83.3537 30.909 83.3802 30.9733 83.4069 31.0317L83.391 31.0742L83.1494 31.202L83.1135 31.2007C83.0855 31.1136 83.0517 31.0203 83.0121 30.9209C82.9725 30.8214 82.9327 30.7279 82.8926 30.6404C82.8326 30.5091 82.7726 30.3778 82.7126 30.2465C82.6477 30.1174 82.5837 29.9967 82.5206 29.8845L82.6433 29.7668ZM83.317 27.1675C83.1709 27.2341 83.0351 27.3166 82.9095 27.4151C82.791 27.5162 82.6924 27.6287 82.6138 27.7527C82.5401 27.8745 82.4947 28.0069 82.4777 28.1498C82.4678 28.2954 82.4984 28.446 82.5695 28.6016C82.6451 28.7669 82.7385 28.9006 82.8499 29.0026C82.9683 29.1072 83.0865 29.1856 83.2044 29.2375C83.3294 29.2922 83.4468 29.3238 83.5566 29.3325C83.6687 29.346 83.7575 29.3408 83.823 29.3168L84.6335 28.947C84.6923 28.9084 84.7544 28.8448 84.8198 28.7562C84.8923 28.6703 84.9499 28.5646 84.9926 28.4394C85.0376 28.3189 85.0604 28.1822 85.061 28.0291C85.0665 27.8738 85.0292 27.7086 84.9492 27.5336C84.8758 27.3731 84.776 27.2512 84.6496 27.1678C84.5281 27.0822 84.3936 27.026 84.246 26.9993C84.1007 26.9774 83.9473 26.9828 83.7857 27.0153C83.6241 27.0479 83.4679 27.0986 83.317 27.1675Z" fill="#6190C0"/>
<path d="M87.3723 38.4449L86.7017 38.4498L86.1788 35.872L86.8478 35.8593L87.3723 38.4449Z" fill="#6190C0"/>
<path d="M85.814 49.0495C85.7414 48.78 85.6826 48.4976 85.6375 48.2021C85.5871 47.9066 85.5664 47.5985 85.5756 47.2778C85.5889 46.8129 85.6701 46.4088 85.8191 46.0654C85.9733 45.7276 86.1767 45.4473 86.4293 45.2245C86.6818 45.0071 86.9728 44.8469 87.3023 44.744C87.6318 44.6411 87.9784 44.5949 88.3422 44.6053C88.7273 44.6162 89.084 44.6853 89.4123 44.8123C89.7404 44.9446 90.0242 45.1319 90.2635 45.374C90.5028 45.6162 90.6871 45.9129 90.8162 46.2642C90.9507 46.6157 91.0114 47.0212 90.9982 47.4807C90.9953 47.5823 90.9866 47.6997 90.9721 47.8329C90.9574 47.9716 90.9346 48.1153 90.9036 48.2642C90.8725 48.413 90.8307 48.5643 90.7782 48.7178C90.7308 48.8769 90.6703 49.0276 90.5966 49.1699L90.5239 49.1839L89.6532 49.0227L89.6636 48.662L89.6885 48.6306C89.8712 48.6091 90.0214 48.5037 90.1393 48.3146C90.2623 48.1309 90.3297 47.8333 90.3414 47.4219C90.3488 47.1654 90.3312 46.9376 90.2887 46.7385C90.2514 46.5449 90.171 46.3635 90.0473 46.1941C89.9597 46.074 89.8528 45.9747 89.7266 45.8962C89.6057 45.8179 89.471 45.7552 89.3224 45.7082C89.1739 45.6611 89.0169 45.6273 88.8516 45.6065C88.6862 45.5857 88.5206 45.573 88.3548 45.5683C88.0285 45.5589 87.7357 45.5934 87.4765 45.6715C87.2172 45.7551 86.997 45.8718 86.8161 46.0217C86.6351 46.1716 86.4935 46.3494 86.3913 46.5551C86.2942 46.7662 86.2422 46.9947 86.2352 47.2405C86.233 47.3153 86.2334 47.3955 86.2363 47.4812C86.2444 47.5723 86.2552 47.6609 86.2688 47.7469C86.2824 47.8328 86.299 47.9082 86.3186 47.9729C86.338 48.043 86.358 48.0917 86.3787 48.119C86.3938 48.1515 86.4146 48.1708 86.4412 48.1769C86.4678 48.183 86.5025 48.1867 86.5453 48.1879C86.5828 48.189 86.6443 48.1908 86.7299 48.1932C86.8155 48.1956 86.8825 48.1922 86.9309 48.1829C87.0703 48.1762 87.1755 48.1498 87.2464 48.1036C87.3225 48.063 87.3717 48.027 87.394 47.9956C87.4382 47.9487 87.4643 47.8772 87.4724 47.7812C87.4805 47.6852 87.4858 47.5944 87.4882 47.5089L87.5215 47.4697L87.8591 47.4553L87.8908 47.4723C87.8897 47.5097 87.8854 47.5684 87.8777 47.6484C87.8699 47.7337 87.8621 47.8191 87.8543 47.9044C87.8464 47.9951 87.8386 48.0804 87.8309 48.1604C87.8232 48.2458 87.8187 48.3072 87.8177 48.3446L87.8016 48.9056C87.8005 48.9431 87.8018 48.9939 87.8053 49.0582C87.8088 49.1224 87.8122 49.1894 87.8156 49.259C87.819 49.3286 87.8224 49.3956 87.8259 49.4599C87.8294 49.5241 87.8306 49.575 87.8296 49.6124L87.797 49.6275L87.4444 49.6014L87.4135 49.5604C87.4179 49.4054 87.3756 49.2946 87.2865 49.2279C87.2026 49.1666 87.0752 49.1283 86.9043 49.1127C86.7977 49.0989 86.6829 49.0876 86.56 49.0788C86.4423 49.0754 86.3541 49.0729 86.2952 49.0712C86.215 49.0689 86.1267 49.0664 86.0304 49.0637C85.9393 49.0664 85.8803 49.0728 85.8532 49.0827L85.814 49.0495Z" fill="#6190C0"/>
<path d="M87.0672 53.2591L86.9516 53.048C86.9927 52.7623 87.0308 52.4788 87.0659 52.1976C87.1002 51.9217 87.1383 51.6382 87.1802 51.3472L87.2739 50.6964C87.2376 50.6858 87.2009 50.6778 87.1638 50.6725C87.132 50.6679 87.1002 50.6633 87.0684 50.6588C86.9307 50.639 86.7896 50.643 86.645 50.6709C86.5004 50.6987 86.3653 50.7549 86.2396 50.8395C86.1184 50.9301 86.012 51.0498 85.9203 51.1987C85.8339 51.3483 85.7743 51.5368 85.7415 51.7644C85.7179 51.9284 85.7144 52.1034 85.7309 52.2894C85.7519 52.4815 85.788 52.6622 85.8393 52.8316L85.7643 52.9585L85.4783 52.9174L85.4023 52.8255C85.3199 52.6841 85.2516 52.4825 85.1974 52.2209C85.1424 51.9645 85.1354 51.6935 85.1765 51.4078C85.2169 51.1273 85.2989 50.8772 85.4224 50.6573C85.5505 50.4434 85.7115 50.264 85.9053 50.1191C86.0985 49.9794 86.3184 49.8786 86.5652 49.8169C86.8112 49.7604 87.0772 49.7527 87.3632 49.7938C87.6546 49.8356 87.9125 49.9213 88.1372 50.0508C88.3618 50.1802 88.5471 50.3392 88.693 50.5275C88.8381 50.7212 88.9424 50.936 89.0057 51.172C89.0683 51.4132 89.081 51.6634 89.0436 51.9227C89.0238 52.0603 88.9832 52.2111 88.9218 52.3751C88.8596 52.5444 88.7641 52.7008 88.6353 52.8443C88.5118 52.9886 88.3456 53.1105 88.1366 53.2101C87.9329 53.3105 87.6741 53.3624 87.36 53.3659L87.0672 53.2591ZM88.4466 51.8451C88.4839 51.5858 88.4346 51.3654 88.2985 51.1838C88.167 51.0083 88.001 50.8845 87.8005 50.8125L87.7434 51.2094C87.7167 51.3946 87.6931 51.5775 87.6725 51.7582C87.6572 51.9396 87.6362 52.1229 87.6096 52.3081C87.5997 52.3769 87.611 52.4298 87.6435 52.4669C87.6813 52.5047 87.7214 52.5267 87.7637 52.5328C87.9227 52.5556 88.0688 52.4983 88.2021 52.3608C88.3354 52.2233 88.4169 52.0514 88.4466 51.8451Z" fill="#6190C0"/>
<path d="M87.1189 57.9455L87.3434 57.0924C87.0432 57.0136 86.7644 56.9376 86.507 56.8645C86.2534 56.7979 86.0308 56.7394 85.8393 56.6892C85.653 56.6402 85.501 56.5976 85.3834 56.5611C85.2643 56.5299 85.1919 56.5109 85.166 56.5041C84.9641 56.4511 84.8194 56.4545 84.7317 56.5144C84.644 56.5743 84.5865 56.6559 84.5593 56.7593C84.5389 56.8369 84.5236 56.9268 84.5133 57.0291C84.5029 57.1314 84.5019 57.2196 84.5101 57.2936L84.4124 57.3177L84.1766 57.1729C84.1357 57.0129 84.1143 56.8525 84.1124 56.6917C84.1039 56.5347 84.116 56.3942 84.1486 56.2701C84.2316 55.9547 84.3632 55.7488 84.5435 55.6524C84.7238 55.5561 84.9278 55.5378 85.1555 55.5976C85.2021 55.6098 85.292 55.6362 85.4252 55.6767C85.5636 55.7185 85.7356 55.7692 85.9412 55.8288C86.1521 55.8897 86.394 55.9587 86.6669 56.0359C86.9398 56.1131 87.2368 56.1938 87.5576 56.2781L87.6637 55.8748L87.7107 55.854L88.0523 55.9437L88.0752 55.9829L88.0778 56.4147C88.2434 56.4582 88.413 56.4972 88.5865 56.5317C88.7638 56.5727 88.9366 56.6098 89.105 56.6429L89.1373 56.7094L89.1165 56.8201C89.1069 56.8563 89.0966 56.906 89.0854 56.9694C89.0729 57.038 89.0597 57.1092 89.0459 57.1829C89.0372 57.258 89.0299 57.328 89.0239 57.3927C89.0165 57.4626 89.014 57.5145 89.0162 57.5482L88.9667 57.6099C88.8442 57.55 88.6762 57.4838 88.4629 57.4112C88.2548 57.34 88.055 57.2792 87.8635 57.229L87.6856 58.0943L87.6444 58.1249L87.1475 57.9944L87.1189 57.9455Z" fill="#6190C0"/>
<path d="M85.0542 65.3566C84.9311 65.2917 84.8095 65.2699 84.6893 65.2912C84.5692 65.3125 84.446 65.3624 84.3198 65.441C84.1984 65.522 84.0693 65.6232 83.9326 65.7446C83.7959 65.8659 83.6518 65.9955 83.5004 66.1333C83.3442 66.2685 83.187 66.3942 83.0289 66.5104C82.8755 66.629 82.7132 66.7187 82.5419 66.7795C82.3728 66.8475 82.1962 66.8783 82.012 66.8719C81.8301 66.8727 81.6374 66.8195 81.4339 66.7122C81.2256 66.6025 81.0575 66.4625 80.9296 66.2923C80.8064 66.1246 80.7232 65.9327 80.6801 65.7165C80.6392 65.5076 80.643 65.2769 80.6916 65.0245C80.7378 64.7768 80.8307 64.5206 80.9706 64.2558C81.1204 63.9721 81.3058 63.7072 81.5266 63.4609C81.7474 63.2147 81.9781 63.0129 82.2185 62.8555L82.3257 62.8758L83.1909 63.5403L83.0223 63.8595L82.961 63.8725C82.6195 63.7287 82.3301 63.7152 82.093 63.832C81.8533 63.9535 81.6461 64.1797 81.4713 64.5107C81.299 64.8369 81.2309 65.1032 81.2671 65.3097C81.308 65.5186 81.442 65.683 81.6692 65.8027C81.8159 65.88 81.9528 65.9129 82.08 65.9014C82.2071 65.8898 82.3337 65.8447 82.4599 65.7662C82.5836 65.6924 82.7127 65.5912 82.8472 65.4626C82.9817 65.334 83.1343 65.1939 83.3052 65.0422C83.4567 64.9044 83.6066 64.7809 83.755 64.6718C83.9081 64.5651 84.0631 64.4836 84.2199 64.4273C84.379 64.3781 84.5458 64.3603 84.7202 64.3736C84.8947 64.387 85.0813 64.4461 85.2801 64.5509C85.6966 64.7704 85.9472 65.0748 86.0321 65.464C86.1144 65.858 86.0082 66.3339 85.7135 66.8918C85.5787 67.1471 85.4218 67.3697 85.2429 67.5595C85.0687 67.7518 84.9015 67.9024 84.7411 68.0112L84.648 67.9984L83.8986 67.4584L84.0784 67.118L84.1327 67.1012C84.3464 67.1776 84.5452 67.1736 84.729 67.0891C84.9127 67.0047 85.0721 66.8348 85.2069 66.5795C85.3568 66.2958 85.4161 66.046 85.3849 65.8301C85.3537 65.6142 85.2435 65.4564 85.0542 65.3566Z" fill="#6190C0"/>
<path d="M80.517 71.224L81.0154 70.4958C80.7591 70.3208 80.5221 70.1557 80.3043 70.0004C80.0878 69.8526 79.8979 69.7228 79.7344 69.6112C79.5754 69.5025 79.4466 69.4113 79.348 69.3375C79.2464 69.2681 79.1846 69.2259 79.1625 69.2108C78.9902 69.0931 78.8527 69.0477 78.75 69.0747C78.6472 69.1017 78.5657 69.1593 78.5053 69.2475C78.46 69.3137 78.4152 69.3933 78.3711 69.4862C78.327 69.5791 78.2963 69.6617 78.2791 69.7342L78.179 69.7241L78.0057 69.5086C78.021 69.3442 78.0548 69.1859 78.107 69.0338C78.1518 68.8831 78.2105 68.7548 78.283 68.6489C78.4672 68.3797 78.6605 68.23 78.8627 68.1997C79.0649 68.1695 79.2632 68.2207 79.4576 68.3535C79.4973 68.3807 79.5731 68.4357 79.6849 68.5185C79.8012 68.6044 79.9462 68.7099 80.1198 68.835C80.2979 68.9632 80.5025 69.1094 80.7336 69.2737C80.9647 69.438 81.2172 69.6138 81.4911 69.8008L81.7267 69.4566L81.7779 69.4528L82.0695 69.6519L82.0779 69.6965L81.935 70.1041C82.0764 70.2006 82.223 70.2943 82.3748 70.385C82.528 70.4832 82.6783 70.5762 82.8257 70.6639L82.8337 70.7374L82.7769 70.8346C82.7558 70.8655 82.7293 70.9089 82.6975 70.9649C82.6626 71.0253 82.6263 71.0879 82.5884 71.1526C82.5549 71.2205 82.5245 71.2839 82.4971 71.3429C82.4667 71.4063 82.4468 71.4542 82.4375 71.4867L82.3702 71.5282C82.2749 71.4307 82.139 71.312 81.9625 71.172C81.7905 71.035 81.6227 70.9107 81.4593 70.7991L81.0007 71.5544L80.9515 71.5694L80.5274 71.2797L80.517 71.224Z" fill="#6190C0"/>
<path d="M75.4234 72.4699C75.4493 72.5136 75.4949 72.5672 75.5601 72.6307C75.6218 72.6983 75.6758 72.7627 75.7219 72.8238L75.7453 72.8335C75.7267 72.7325 75.7171 72.6252 75.7166 72.5115C75.7125 72.4019 75.7215 72.2895 75.7436 72.1742C75.7657 72.0589 75.8032 71.9463 75.856 71.8365C75.9013 71.7271 75.966 71.624 76.0501 71.527C76.1763 71.3816 76.3089 71.2736 76.448 71.203C76.5871 71.1324 76.7246 71.0923 76.8605 71.0826C76.9964 71.0728 77.1303 71.0898 77.2624 71.1334C77.391 71.1811 77.5079 71.2504 77.6131 71.3414C77.7708 71.478 77.8785 71.6313 77.9362 71.8015C77.9939 71.9717 78.0101 72.1449 77.9848 72.321C77.9624 72.4856 77.9081 72.6543 77.8219 72.8272C77.7397 73.0036 77.6508 73.1673 77.5554 73.3181C77.46 73.4689 77.367 73.6006 77.2764 73.7132C77.1899 73.8293 77.1309 73.9055 77.0993 73.9419L77.0257 74.0267C77.1546 74.1312 77.2587 74.2071 77.338 74.2545C77.4213 74.3054 77.4959 74.3418 77.562 74.3636C77.6744 74.3972 77.7836 74.3857 77.8895 74.3288C77.996 74.2795 78.0983 74.1983 78.1965 74.0852C78.256 74.0165 78.3148 73.9365 78.3728 73.8452C78.4313 73.7614 78.4761 73.673 78.5074 73.5798C78.5387 73.4866 78.5508 73.391 78.5438 73.293C78.5373 73.2025 78.4971 73.1182 78.4232 73.0401L78.4261 73.0001L78.5943 72.8062L79.2118 73.2452L79.2324 73.2949C79.2357 73.3401 79.2217 73.4094 79.1904 73.5026C79.1591 73.5957 79.1136 73.7013 79.0537 73.8193C78.998 73.9408 78.9291 74.065 78.8471 74.1922C78.7657 74.3268 78.6742 74.4528 78.5726 74.5699C78.4359 74.7275 78.2878 74.8574 78.1282 74.9598C77.9727 75.0657 77.8144 75.1338 77.6535 75.1643C77.489 75.1987 77.3236 75.1935 77.1573 75.1485C76.995 75.1071 76.837 75.0198 76.6833 74.8868C76.5175 74.7433 76.3777 74.6187 76.2639 74.5132C76.1466 74.4116 76.0392 74.3151 75.9416 74.2235C75.844 74.132 75.7484 74.0422 75.6548 73.9541C75.5618 73.8736 75.4567 73.7826 75.3394 73.6811C75.2394 73.6086 75.1639 73.561 75.1129 73.5381C75.062 73.5152 75.0121 73.5074 74.9633 73.5147C74.9029 73.519 74.8406 73.55 74.7765 73.6076C74.7128 73.6728 74.6565 73.7337 74.6075 73.7902L74.5674 73.7874L74.3506 73.621L74.3316 73.5939C74.3993 73.5322 74.4737 73.4587 74.5548 73.3733C74.636 73.2879 74.7098 73.2069 74.7764 73.1301C74.8745 73.017 74.9727 72.9038 75.0708 72.7907C75.1649 72.6741 75.2517 72.5618 75.3312 72.4538L75.4234 72.4699ZM76.0786 73.0371C76.0883 73.0667 76.102 73.0998 76.1198 73.1364C76.1341 73.1771 76.1597 73.217 76.1967 73.256L76.686 73.7327L76.7333 73.6781C76.842 73.5529 76.9408 73.4226 77.0297 73.2874C77.1187 73.1522 77.183 73.0169 77.2226 72.8814C77.2622 72.746 77.2678 72.6129 77.2395 72.4823C77.2112 72.3517 77.1323 72.2304 77.0029 72.1183C76.8937 72.0238 76.784 71.9748 76.6737 71.9713C76.56 71.9719 76.4628 72.0186 76.3822 72.1115C76.3226 72.1802 76.2711 72.2559 76.2277 72.3386C76.1849 72.4288 76.1513 72.5165 76.127 72.6016C76.1028 72.6867 76.0858 72.7675 76.0761 72.844C76.0705 72.924 76.0713 72.9883 76.0786 73.0371Z" fill="#6190C0"/>
<path d="M74.6758 77.176C74.7051 77.2869 74.7341 77.4055 74.7628 77.5316C74.7875 77.6613 74.8009 77.7905 74.803 77.9192C74.805 78.0479 74.7883 78.1721 74.7529 78.2916C74.7135 78.4148 74.6426 78.5234 74.5401 78.6174C74.5086 78.6463 74.4675 78.6767 74.4169 78.7086C74.3659 78.748 74.3134 78.7817 74.2591 78.8096C74.201 78.8412 74.143 78.869 74.0851 78.893C74.0273 78.917 73.9775 78.93 73.9358 78.932L73.8618 78.9345L73.3466 78.2314L73.6009 77.9983C73.6561 78.0347 73.7311 78.053 73.8257 78.0533C73.9201 78.0611 74.0185 78.018 74.121 77.9241C74.2117 77.8409 74.2728 77.7414 74.3043 77.6254C74.3394 77.5134 74.3538 77.3987 74.3475 77.2811C74.3411 77.1635 74.3176 77.0509 74.2767 76.9432C74.2395 76.8395 74.192 76.7561 74.1341 76.6931L73.7596 76.2855C73.6221 76.1358 73.519 76.0235 73.4502 75.9487C73.3775 75.8775 73.3139 75.8161 73.2593 75.7646C73.1718 75.6852 73.0968 75.6233 73.0343 75.579C72.9715 75.5423 72.9117 75.5246 72.8548 75.5259C72.8245 75.5247 72.7882 75.5326 72.7458 75.5497C72.7031 75.5743 72.6622 75.6009 72.6231 75.6295C72.584 75.6581 72.5487 75.6869 72.5171 75.7158C72.4817 75.7483 72.454 75.7736 72.4343 75.7917L72.3776 75.7893L72.1867 75.6052L72.1768 75.5707C72.2005 75.549 72.2417 75.5148 72.3005 75.4682C72.3593 75.4215 72.4221 75.3712 72.4888 75.3173C72.5519 75.2595 72.6128 75.2072 72.6716 75.1606C72.7268 75.11 72.7663 75.0738 72.7899 75.0521L73.1684 74.7051C73.196 74.6798 73.2393 74.64 73.2985 74.5858C73.3501 74.5313 73.4074 74.4751 73.4705 74.4173C73.5299 74.3555 73.5874 74.2955 73.6429 74.2374C73.6945 74.1828 73.7341 74.1429 73.7617 74.1176L73.7893 74.1358L73.962 74.3475L73.966 74.3874C73.899 74.4488 73.8377 74.5086 73.7822 74.5668C73.7303 74.6289 73.703 74.6902 73.7005 74.7506C73.6942 74.8071 73.7051 74.8624 73.7331 74.9166C73.7571 74.9744 73.8141 75.06 73.9039 75.1736C73.9434 75.2245 73.9993 75.2893 74.0716 75.3681C74.144 75.4468 74.2453 75.5571 74.3756 75.6989L74.7718 76.1302C74.8478 76.2129 74.9111 76.2818 74.9618 76.3369C75.0161 76.396 75.0651 76.4454 75.1088 76.4851C75.1486 76.5284 75.1868 76.566 75.2233 76.5978C75.2558 76.6333 75.2922 76.6689 75.3323 76.7047C75.3764 76.7368 75.4226 76.7634 75.4709 76.7844C75.5192 76.8054 75.5548 76.8163 75.5774 76.8173C75.6639 76.8324 75.7403 76.8167 75.8067 76.7704C75.8731 76.724 75.9378 76.672 76.0009 76.6141L76.0462 76.6161L76.2308 76.8169L76.2234 76.8563L76.117 76.9539C76.0302 77.0334 75.9179 77.1365 75.7799 77.263C75.6455 77.3934 75.5325 77.5116 75.4409 77.6174L75.261 77.8367L75.1224 77.757C75.0773 77.6604 75.0173 77.5595 74.9422 77.4541C74.8633 77.3524 74.7822 77.2562 74.699 77.1656L74.6758 77.176Z" fill="#6190C0"/>
<path d="M69.8321 81.514L70.5465 80.9955C70.364 80.7447 70.1964 80.5096 70.0434 80.2902C69.8893 80.0783 69.754 79.8923 69.6376 79.7323C69.5244 79.5766 69.4338 79.4474 69.3658 79.3448C69.2934 79.2453 69.2494 79.1848 69.2337 79.1632C69.111 78.9945 68.9967 78.9056 68.8909 78.8965C68.7851 78.8874 68.6889 78.9143 68.6023 78.9771C68.5374 79.0243 68.4685 79.0842 68.3957 79.1569C68.3228 79.2295 68.2661 79.2971 68.2256 79.3596L68.1347 79.3165L68.044 79.0553C68.1137 78.9056 68.1987 78.7679 68.2991 78.6421C68.392 78.5152 68.4904 78.4141 68.5943 78.3387C68.8584 78.147 69.0908 78.0709 69.2914 78.1103C69.4921 78.1497 69.6616 78.2645 69.8 78.4548C69.8283 78.4937 69.8812 78.571 69.9586 78.6866C70.0392 78.8065 70.1402 78.9545 70.2617 79.1306C70.3864 79.3111 70.5299 79.5175 70.6923 79.7499C70.8546 79.9822 71.0333 80.2325 71.2283 80.5006L71.566 80.2555L71.6156 80.2691L71.8232 80.5545L71.8161 80.5993L71.5444 80.9353C71.6451 81.0737 71.7517 81.2111 71.8641 81.3475C71.9754 81.4914 72.0857 81.6294 72.195 81.7615L72.1778 81.8334L72.0917 81.9059C72.0613 81.9279 72.0218 81.9599 71.973 82.002C71.9198 82.0471 71.8646 82.0939 71.8071 82.1422C71.7528 82.1948 71.7028 82.2443 71.6571 82.2907C71.6071 82.3402 71.5723 82.3787 71.5526 82.4062L71.4753 82.4227C71.4183 82.2988 71.3302 82.1414 71.2111 81.9503C71.0952 81.7635 70.979 81.5902 70.8626 81.4302L70.1766 81.9875L70.1252 81.9852L69.8233 81.57L69.8321 81.514Z" fill="#6190C0"/>
<path d="M64.7223 83.2012L64.819 82.9809C65.0706 82.8389 65.3186 82.696 65.5629 82.552C65.8026 82.4106 66.0506 82.2677 66.3069 82.1231L66.88 81.7998C66.8662 81.7646 66.8501 81.7307 66.8317 81.6981C66.8159 81.6702 66.8001 81.6422 66.7844 81.6143C66.7159 81.4933 66.6266 81.3841 66.5162 81.2867C66.4058 81.1893 66.2788 81.1168 66.135 81.0689C65.9892 81.0284 65.8293 81.0173 65.6553 81.0357C65.4839 81.0587 65.298 81.1267 65.0977 81.2397C64.9532 81.3212 64.8123 81.4253 64.6749 81.5519C64.5355 81.6858 64.4143 81.8247 64.3114 81.9688L64.1649 81.9869L64.0229 81.7356L64.0493 81.6193C64.1112 81.4678 64.2292 81.2907 64.4035 81.088C64.5731 80.888 64.7837 80.717 65.0353 80.575C65.2823 80.4357 65.5306 80.3478 65.7804 80.3112C66.0281 80.282 66.2687 80.2998 66.502 80.3646C66.7306 80.4321 66.9448 80.5446 67.1444 80.7021C67.3394 80.8622 67.508 81.0679 67.6501 81.3193C67.7948 81.5753 67.8844 81.8317 67.919 82.0885C67.9535 82.3453 67.9407 82.5889 67.8804 82.8193C67.8155 83.0524 67.7089 83.266 67.5605 83.4602C67.4075 83.6571 67.2169 83.8199 66.9886 83.9487C66.8674 84.017 66.7231 84.077 66.5555 84.1285C66.3834 84.1827 66.2011 84.2026 66.0086 84.1884C65.8189 84.1788 65.6207 84.1218 65.4141 84.0173C65.2102 83.9175 65.0109 83.7444 64.8164 83.4981L64.7223 83.2012ZM66.6855 83.429C66.9139 83.3001 67.0584 83.1265 67.1193 82.908C67.1781 82.6968 67.1749 82.4899 67.1095 82.2873L66.76 82.4845C66.5969 82.5765 66.4375 82.6695 66.2817 82.7635C66.1285 82.8622 65.9704 82.9575 65.8073 83.0495C65.7467 83.0837 65.7117 83.125 65.7022 83.1733C65.6953 83.2263 65.7023 83.2715 65.7234 83.3087C65.8023 83.4483 65.937 83.5289 66.1274 83.5505C66.3178 83.572 66.5038 83.5315 66.6855 83.429Z" fill="#6190C0"/>
<path d="M60.1236 83.1561C60.1382 83.1905 60.1578 83.2577 60.1826 83.3575C60.2046 83.4643 60.2263 83.5567 60.2476 83.6347L60.2675 83.6611C60.2999 83.3805 60.4044 83.1333 60.5812 82.9193C60.76 82.7104 60.9726 82.5539 61.2191 82.4498C61.4902 82.3354 61.7476 82.2847 61.9914 82.2979C62.2302 82.3131 62.4506 82.3739 62.6524 82.4802C62.8542 82.5865 63.032 82.732 63.1856 82.9167C63.3393 83.1014 63.464 83.307 63.5598 83.5335C63.6994 83.8634 63.7664 84.1659 63.7608 84.4411C63.7523 84.7232 63.697 84.97 63.5947 85.1815C63.4945 85.3979 63.3619 85.5787 63.1967 85.7238C63.0287 85.876 62.8535 85.9906 62.6711 86.0676C62.4493 86.1612 62.2081 86.2021 61.9475 86.1903C61.6868 86.1785 61.4375 86.0835 61.1995 85.9054L61.1972 85.9412C61.2675 86.0798 61.3339 86.223 61.3964 86.3707C61.4609 86.5234 61.5234 86.6711 61.5839 86.8139C61.6484 86.9666 61.7015 87.0921 61.7432 87.1906C61.787 87.294 61.8259 87.3791 61.86 87.446C61.8891 87.5149 61.9176 87.5754 61.9455 87.6275C61.9684 87.6817 61.9948 87.7373 62.0247 87.7943C62.0505 87.8414 62.0875 87.8809 62.1359 87.9128C62.1842 87.9446 62.2189 87.9648 62.2399 87.9733C62.3318 87.9984 62.4154 88.0037 62.4907 87.9893C62.561 87.977 62.6405 87.9522 62.7293 87.9147L62.7713 87.9318L62.8744 88.1755L62.8574 88.2176L62.4359 88.3955C62.3226 88.4433 62.2042 88.4933 62.081 88.5453C61.9549 88.6043 61.8457 88.662 61.7534 88.7184L61.5102 88.8646L61.4065 88.743C61.408 88.7192 61.4023 88.6781 61.3892 88.6197C61.3733 88.5684 61.3553 88.5122 61.3353 88.451C61.3103 88.3919 61.2888 88.3342 61.2708 88.278C61.2479 88.2238 61.2302 88.182 61.2177 88.1524C61.1864 88.0786 61.1587 88.0061 61.1344 87.9351C61.1074 87.8711 61.0751 87.7948 61.0376 87.7061C61.0022 87.6224 60.9598 87.5155 60.9106 87.3854C60.8585 87.2623 60.7908 87.1023 60.7075 86.9053L60.0263 85.2951C59.9388 85.0883 59.868 84.9209 59.8139 84.7928C59.7569 84.6718 59.7106 84.5694 59.6752 84.4857C59.6349 84.4041 59.6012 84.3313 59.5741 84.2673C59.5442 84.2103 59.508 84.1385 59.4656 84.0519C59.4182 83.9675 59.3788 83.9086 59.3474 83.8755C59.311 83.8444 59.2703 83.8239 59.2254 83.8138C59.1693 83.7911 59.1047 83.7893 59.0315 83.8086C58.9604 83.8328 58.8953 83.8574 58.8361 83.8824L58.7941 83.8653L58.673 83.6204L58.6753 83.5847C58.7633 83.5591 58.8576 83.528 58.9583 83.4913C59.0589 83.4546 59.1536 83.4175 59.2424 83.3801C59.3754 83.3239 59.5085 83.2677 59.6416 83.2115C59.7726 83.1504 59.8952 83.09 60.0093 83.0302L60.1236 83.1561ZM62.7053 83.903C62.6428 83.7552 62.5641 83.6173 62.4692 83.489C62.3714 83.3678 62.2616 83.2662 62.1397 83.1841C62.02 83.107 61.8888 83.0579 61.7463 83.0368C61.6009 83.0228 61.4494 83.049 61.2916 83.1156C61.124 83.1864 60.9876 83.2759 60.8824 83.3842C60.7743 83.4994 60.6925 83.6152 60.6371 83.7314C60.5789 83.8547 60.5439 83.971 60.5321 84.0805C60.5154 84.192 60.5181 84.2808 60.5402 84.3469L60.8871 85.1668C60.924 85.2266 60.9859 85.2905 61.0726 85.3583C61.1566 85.4331 61.2606 85.4937 61.3848 85.5399C61.504 85.5882 61.6402 85.6149 61.7933 85.6199C61.9486 85.6298 62.1149 85.5973 62.2924 85.5224C62.455 85.4537 62.5799 85.3575 62.6669 85.2337C62.7561 85.1148 62.8161 84.9821 62.8471 84.8355C62.8731 84.691 62.8721 84.5377 62.8441 84.3754C62.8161 84.2131 62.7699 84.0556 62.7053 83.903Z" fill="#6190C0"/>
<path d="M51.305 87.6304L51.3193 86.9606L53.9136 86.5121L53.9072 87.1805L51.305 87.6304Z" fill="#6190C0"/>
<path d="M40.7383 85.7716C41.01 85.7068 41.2943 85.6561 41.5912 85.6195C41.8884 85.5776 42.1973 85.5658 42.5179 85.5841C42.9827 85.6106 43.3847 85.7032 43.7241 85.8618C44.0578 86.0255 44.3324 86.2366 44.5481 86.4952C44.7584 86.7535 44.9104 87.0487 45.0039 87.3807C45.0975 87.7126 45.1339 88.0601 45.1131 88.423C45.0911 88.8073 45.0119 89.1615 44.8754 89.4857C44.7336 89.8095 44.5381 90.0875 44.289 90.3196C44.0399 90.5517 43.7377 90.7272 43.3825 90.8461C43.027 90.9704 42.6195 91.0194 42.16 90.9931C42.0585 90.9873 41.9413 90.9753 41.8083 90.957C41.67 90.9384 41.5268 90.9115 41.3788 90.8762C41.2307 90.841 41.0806 90.7949 40.9284 90.7381C40.7706 90.6862 40.6215 90.6215 40.4812 90.5438L40.4693 90.4709L40.6555 89.606L41.0162 89.6266L41.0468 89.6525C41.0632 89.8355 41.1643 89.9885 41.3502 90.1116C41.5305 90.2397 41.8263 90.3155 42.2377 90.339C42.4941 90.3536 42.7225 90.3426 42.923 90.3058C43.1177 90.2741 43.3016 90.199 43.4746 90.0803C43.5973 89.9963 43.6997 89.8924 43.7818 89.7686C43.8637 89.6501 43.9302 89.5173 43.9815 89.3703C44.0328 89.2234 44.0712 89.0676 44.0967 88.9031C44.1222 88.7385 44.1397 88.5735 44.1492 88.4081C44.1678 88.0825 44.1417 87.7892 44.0709 87.5282C43.9947 87.2668 43.8842 87.0436 43.7394 86.8586C43.5945 86.6737 43.4207 86.5272 43.2178 86.4192C43.0093 86.3163 42.7822 86.2578 42.5364 86.2438C42.4616 86.2395 42.3813 86.2376 42.2955 86.238C42.2041 86.2435 42.1152 86.2518 42.0288 86.263C41.9424 86.2741 41.8665 86.2885 41.8012 86.3062C41.7305 86.3235 41.6812 86.3422 41.6533 86.362C41.6203 86.3762 41.6004 86.3964 41.5935 86.4228C41.5866 86.4492 41.582 86.4837 41.5795 86.5264C41.5774 86.5638 41.5739 86.6252 41.569 86.7106C41.5641 86.796 41.5656 86.863 41.5736 86.9116C41.5763 87.051 41.5997 87.1567 41.6438 87.2289C41.6823 87.306 41.717 87.3562 41.7478 87.3794C41.7934 87.4248 41.8642 87.453 41.96 87.4638C42.0559 87.4746 42.1466 87.4825 42.2321 87.4874L42.2703 87.5217L42.2751 87.8593L42.2572 87.8904C42.2198 87.8883 42.1612 87.8822 42.0814 87.8723C41.9962 87.8621 41.911 87.8519 41.8259 87.8417C41.7353 87.8311 41.6502 87.8209 41.5703 87.811C41.4851 87.8008 41.4239 87.7946 41.3865 87.7925L40.8255 87.7604C40.7881 87.7583 40.7372 87.758 40.6728 87.7597C40.6084 87.7614 40.5413 87.7629 40.4715 87.7643C40.4017 87.7657 40.3347 87.7672 40.2702 87.7689C40.2058 87.7705 40.1549 87.7703 40.1175 87.7682L40.1033 87.7352L40.1395 87.3839L40.1814 87.3542C40.3364 87.363 40.4485 87.3239 40.5178 87.2368C40.5814 87.1548 40.6235 87.0287 40.644 86.8585C40.6608 86.7524 40.6753 86.6381 40.6877 86.5157C40.6944 86.3982 40.6995 86.3102 40.7028 86.2515C40.7074 86.1714 40.7124 86.0833 40.7179 85.9873C40.7178 85.8962 40.7131 85.8371 40.704 85.8098L40.7383 85.7716Z" fill="#6190C0"/>
<path d="M36.4903 86.9028L36.7048 86.7934C36.9895 86.8426 37.2721 86.8887 37.5525 86.9318C37.8276 86.9739 38.1101 87.0201 38.4001 87.0702L39.0487 87.1823C39.0604 87.1463 39.0694 87.1099 39.0758 87.0731C39.0813 87.0415 39.0867 87.0098 39.0922 86.9782C39.1159 86.8413 39.1159 86.7002 39.0922 86.5551C39.0685 86.4099 39.0161 86.2734 38.9351 86.1454C38.8479 86.0218 38.7311 85.9121 38.5848 85.8163C38.4375 85.7258 38.2506 85.6609 38.0238 85.6217C37.8604 85.5934 37.6853 85.5849 37.4988 85.596C37.306 85.6115 37.1241 85.6425 36.9532 85.6889L36.8283 85.6103L36.8776 85.3259L36.9717 85.2526C37.1156 85.1744 37.3192 85.112 37.5826 85.0653C37.8406 85.0176 38.112 85.0184 38.3968 85.0677C38.6762 85.116 38.9242 85.205 39.1407 85.3346C39.351 85.4686 39.5259 85.6345 39.6655 85.8322C39.7997 86.0291 39.8942 86.2516 39.949 86.4997C39.9985 86.747 39.9986 87.0129 39.9493 87.2973C39.8991 87.587 39.8061 87.8422 39.6701 88.0628C39.5341 88.2834 39.3698 88.4639 39.1771 88.6042C38.9792 88.7436 38.7613 88.8416 38.5234 88.8981C38.2802 88.9537 38.0295 88.9592 37.7711 88.9145C37.634 88.8908 37.4843 88.8459 37.3219 88.7799C37.1543 88.7129 37.0005 88.6131 36.8606 88.4804C36.7197 88.353 36.6025 88.1835 36.5088 87.972C36.4142 87.7658 36.3696 87.5058 36.375 87.1921L36.4903 86.9028ZM37.8658 88.3206C38.1242 88.3652 38.3462 88.3222 38.5317 88.1915C38.7111 88.0652 38.8397 87.903 38.9175 87.7048L38.522 87.6365C38.3374 87.6046 38.1551 87.5758 37.9749 87.55C37.7938 87.5296 37.6109 87.5034 37.4264 87.4715C37.3578 87.4596 37.3046 87.4694 37.2665 87.5008C37.2276 87.5375 37.2045 87.5769 37.1972 87.619C37.1698 87.7771 37.223 87.9246 37.3567 88.0617C37.4905 88.1987 37.6602 88.285 37.8658 88.3206Z" fill="#6190C0"/>
<path d="M31.7995 86.8205L32.6467 87.069C32.7342 86.7715 32.8182 86.4953 32.8987 86.2404C32.9725 85.989 33.0374 85.7685 33.0932 85.5787C33.1474 85.394 33.1945 85.2435 33.2343 85.127C33.269 85.009 33.2901 84.9372 33.2976 84.9116C33.3564 84.7115 33.3571 84.5669 33.2997 84.4776C33.2423 84.3883 33.1622 84.3286 33.0595 84.2985C32.9825 84.2759 32.8929 84.258 32.7909 84.2448C32.6888 84.2316 32.6006 84.228 32.5263 84.234L32.505 84.1359L32.6566 83.9045C32.8179 83.8683 32.979 83.8515 33.1399 83.8541C33.2973 83.8501 33.4376 83.8662 33.5608 83.9023C33.874 83.9942 34.0762 84.1315 34.1675 84.3143C34.2588 84.4971 34.2713 84.7013 34.205 84.927C34.1914 84.9732 34.1624 85.0622 34.1181 85.194C34.0723 85.331 34.0166 85.5013 33.9512 85.705C33.8842 85.9138 33.8082 86.1534 33.7232 86.4237C33.6382 86.694 33.5489 86.9882 33.4554 87.3062L33.8559 87.4237L33.8754 87.4712L33.7759 87.8098L33.7361 87.8315L33.3039 87.8217C33.2557 87.9859 33.2118 88.1541 33.1723 88.3264C33.1262 88.5023 33.0841 88.6738 33.0462 88.8409L32.9787 88.8713L32.8686 88.8473C32.8327 88.8368 32.7831 88.8251 32.72 88.8121C32.6517 88.7977 32.5809 88.7825 32.5075 88.7665C32.4326 88.7557 32.3629 88.7464 32.2982 88.7385C32.2285 88.7292 32.1767 88.7252 32.1429 88.7264L32.0826 88.6753C32.146 88.5546 32.217 88.3888 32.2957 88.1779C32.3729 87.9721 32.4394 87.7743 32.4952 87.5845L31.6345 87.3822L31.605 87.3401L31.7497 86.8477L31.7995 86.8205Z" fill="#6190C0"/>
<path d="M24.4428 84.5472C24.5112 84.4261 24.5365 84.3053 24.5186 84.1847C24.5008 84.0641 24.4543 83.9397 24.3793 83.8115C24.3017 83.6879 24.2041 83.5561 24.0866 83.4161C23.9691 83.2761 23.8435 83.1286 23.71 82.9734C23.5791 82.8136 23.4578 82.6531 23.3461 82.4919C23.2318 82.3353 23.1467 82.1706 23.0907 81.9979C23.0275 81.8271 23.0017 81.6499 23.0134 81.4661C23.0178 81.2844 23.0765 81.0935 23.1897 80.8933C23.3055 80.6885 23.4503 80.5247 23.6243 80.4018C23.7956 80.2836 23.99 80.206 24.2075 80.1691C24.4178 80.1342 24.6485 80.1446 24.8997 80.2004C25.1462 80.2535 25.3999 80.3537 25.6608 80.5009C25.9404 80.6586 26.2003 80.8512 26.4404 81.0788C26.6805 81.3063 26.8758 81.5424 27.0264 81.787L27.0031 81.8935L26.3134 82.7384L25.9989 82.561L25.9876 82.4994C26.1412 82.1624 26.163 81.8739 26.0529 81.6338C25.9382 81.391 25.7177 81.1776 25.3915 80.9936C25.07 80.8122 24.8055 80.7366 24.5979 80.7669C24.3876 80.8017 24.2194 80.9309 24.0931 81.1543C24.0115 81.2986 23.9747 81.4344 23.9826 81.5617C23.9906 81.689 24.032 81.8167 24.107 81.945C24.1773 82.0706 24.2749 82.2024 24.3997 82.3403C24.5246 82.4783 24.6604 82.6348 24.8074 82.8097C24.9409 82.9649 25.0601 83.1181 25.1651 83.2694C25.2675 83.4254 25.3446 83.5825 25.3965 83.7407C25.4411 83.9009 25.4543 84.0679 25.4359 84.2418C25.4175 84.4156 25.3531 84.6002 25.2426 84.7957C25.011 85.2054 24.6993 85.447 24.3074 85.5206C23.9108 85.5915 23.4376 85.4719 22.8878 85.1618C22.6361 85.0198 22.4179 84.8568 22.2331 84.6727C22.0457 84.4933 21.8998 84.322 21.7954 84.1587L21.8109 84.0662L22.3727 83.3333L22.7082 83.5225L22.7234 83.5772C22.6408 83.7884 22.6392 83.987 22.7185 84.173C22.7977 84.3589 22.9632 84.5228 23.2148 84.6648C23.4944 84.8225 23.7426 84.8889 23.9595 84.8639C24.1765 84.8389 24.3375 84.7334 24.4428 84.5472Z" fill="#6190C0"/>
<path d="M18.7013 79.8489L19.4156 80.3674C19.5981 80.1165 19.7701 79.8846 19.9317 79.6715C20.0858 79.4595 20.2211 79.2736 20.3374 79.1136C20.4507 78.9579 20.5456 78.8318 20.6223 78.7355C20.6947 78.636 20.7387 78.5755 20.7544 78.5539C20.8771 78.3852 20.9264 78.2492 20.9023 78.1458C20.8783 78.0425 20.823 77.9594 20.7364 77.8965C20.6715 77.8494 20.5931 77.8025 20.5014 77.7558C20.4098 77.709 20.3279 77.676 20.2559 77.6568L20.2688 77.5572L20.4895 77.3902C20.6535 77.4102 20.8109 77.4484 20.9616 77.505C21.1112 77.554 21.2379 77.6163 21.3418 77.6917C21.6059 77.8834 21.7502 78.0806 21.7747 78.2834C21.7991 78.4862 21.7422 78.6827 21.6038 78.873C21.5755 78.9119 21.5183 78.986 21.4322 79.0953C21.3429 79.209 21.2332 79.3507 21.1031 79.5206C20.9698 79.6947 20.8176 79.8949 20.6466 80.1209C20.4755 80.347 20.2925 80.5941 20.0975 80.8623L20.4352 81.1073L20.4376 81.1586L20.23 81.4441L20.1851 81.4512L19.7814 81.2969C19.6807 81.4353 19.5828 81.579 19.4877 81.728C19.3851 81.8782 19.2878 82.0256 19.1958 82.1703L19.122 82.1762L19.0264 82.1167C18.9961 82.0947 18.9534 82.0671 18.8983 82.0337C18.8388 81.9971 18.7773 81.9591 18.7135 81.9194C18.6466 81.884 18.584 81.8518 18.5258 81.8228C18.4632 81.7906 18.4158 81.7694 18.3835 81.7592L18.344 81.6908C18.4442 81.5984 18.5669 81.4661 18.712 81.2939C18.854 81.126 18.9831 80.962 19.0995 80.802L18.3569 80.3225L18.3433 80.273L18.6452 79.8578L18.7013 79.8489Z" fill="#6190C0"/>
<path d="M17.6 74.7271C17.5556 74.7517 17.5007 74.7957 17.4352 74.859C17.3658 74.9187 17.2999 74.9707 17.2374 75.015L17.2271 75.0382C17.3286 75.0225 17.4363 75.016 17.55 75.0187C17.6598 75.0178 17.7721 75.03 17.8868 75.0553C18.0015 75.0807 18.1131 75.1213 18.2215 75.1772C18.3297 75.2255 18.431 75.2931 18.5257 75.3798C18.6676 75.51 18.7719 75.6455 18.8385 75.7864C18.9052 75.9273 18.9414 76.0658 18.9472 76.2017C18.9531 76.3377 18.9323 76.471 18.8849 76.6017C18.8335 76.7287 18.7608 76.8434 18.6667 76.9458C18.5256 77.0994 18.369 77.2026 18.1971 77.2554C18.0251 77.3082 17.8514 77.3194 17.6759 77.2891C17.5119 77.262 17.3446 77.203 17.174 77.1119C16.9998 77.0248 16.8387 76.9314 16.6905 76.8318C16.5423 76.7322 16.4131 76.6356 16.3031 76.542C16.1894 76.4522 16.1148 76.3911 16.0793 76.3586L15.9965 76.2827C15.8883 76.4084 15.8093 76.5101 15.7596 76.5879C15.7063 76.6697 15.6678 76.7432 15.6441 76.8085C15.6072 76.9199 15.6157 77.0292 15.6696 77.1366C15.7159 77.2444 15.7942 77.3488 15.9046 77.4501C15.9716 77.5115 16.05 77.5725 16.1397 77.6329C16.2218 77.6937 16.3091 77.7411 16.4014 77.775C16.4938 77.8088 16.5891 77.8237 16.6874 77.8195C16.7781 77.8156 16.8636 77.7779 16.9439 77.7063L16.9838 77.7103L17.173 77.8838L16.7161 78.4879L16.6658 78.5071C16.6204 78.509 16.5515 78.4931 16.4592 78.4592C16.3668 78.4253 16.2625 78.3768 16.1462 78.3137C16.0262 78.2545 15.9038 78.1822 15.7789 78.0967C15.6465 78.0116 15.5231 77.9166 15.4088 77.8118C15.255 77.6708 15.1292 77.5192 15.0314 77.3569C14.9299 77.1986 14.8662 77.0386 14.8403 76.877C14.8105 76.7118 14.8205 76.5468 14.8702 76.382C14.9164 76.2211 15.0082 76.0658 15.1457 75.9162C15.294 75.7547 15.4226 75.6187 15.5315 75.5081C15.6364 75.3938 15.7361 75.2893 15.8305 75.1945C15.9249 75.0996 16.0175 75.0067 16.1083 74.9158C16.1915 74.8252 16.2856 74.7228 16.3905 74.6086C16.4659 74.5108 16.5157 74.4368 16.5401 74.3866C16.5644 74.3363 16.5737 74.2868 16.5678 74.2378C16.5652 74.1774 16.536 74.1143 16.4801 74.0486C16.4167 73.9832 16.3574 73.9252 16.3022 73.8746L16.3062 73.8347L16.4789 73.623L16.5065 73.6048C16.5663 73.6741 16.6378 73.7505 16.7209 73.834C16.804 73.9175 16.883 73.9935 16.9579 74.0622C17.0683 74.1634 17.1787 74.2646 17.2891 74.3658C17.4031 74.4631 17.513 74.553 17.6188 74.6355L17.6 74.7271ZM17.0138 75.3651C16.9839 75.374 16.9504 75.3868 16.9132 75.4035C16.8721 75.4166 16.8315 75.441 16.7914 75.4768L16.3005 75.9518L16.3537 76.0006C16.4759 76.1127 16.6034 76.2151 16.7361 76.3078C16.8689 76.4005 17.0025 76.4685 17.1369 76.5119C17.2713 76.5554 17.4043 76.5648 17.5358 76.5403C17.6673 76.5157 17.791 76.4404 17.9067 76.3144C18.0044 76.2081 18.0566 76.0999 18.0632 75.9899C18.0659 75.8763 18.022 75.7779 17.9313 75.6947C17.8643 75.6333 17.79 75.5797 17.7085 75.534C17.6194 75.4886 17.5327 75.4526 17.4482 75.426C17.3637 75.3993 17.2834 75.3801 17.2071 75.3682C17.1273 75.3603 17.0628 75.3592 17.0138 75.3651Z" fill="#6190C0"/>
<path d="M12.9124 73.8462C12.8005 73.8723 12.6811 73.8979 12.5541 73.9229C12.4236 73.9439 12.2939 73.9536 12.165 73.9519C12.0362 73.9503 11.9124 73.9301 11.7938 73.8913C11.6717 73.8485 11.5651 73.7745 11.474 73.6695C11.4459 73.6372 11.4167 73.5953 11.3862 73.5439C11.3482 73.4919 11.316 73.4384 11.2896 73.3835C11.2597 73.3245 11.2335 73.2658 11.2112 73.2073C11.1888 73.1489 11.1772 73.0988 11.1764 73.057L11.176 72.9831L11.8942 72.4887L12.1203 72.7493C12.0822 72.8034 12.0618 72.8778 12.0588 72.9723C12.0483 73.0663 12.0886 73.1658 12.1797 73.2708C12.2603 73.3638 12.3581 73.4276 12.4732 73.4623C12.5843 73.5006 12.6987 73.5182 12.8166 73.5153C12.9344 73.5123 13.0477 73.492 13.1567 73.4543C13.2615 73.4201 13.3463 73.375 13.411 73.319L13.8296 72.9567C13.9833 72.8237 14.0986 72.7239 14.1754 72.6574C14.2487 72.5868 14.312 72.525 14.3651 72.472C14.447 72.3869 14.5111 72.3138 14.5572 72.2526C14.5957 72.191 14.6152 72.1317 14.6154 72.0749C14.6176 72.0447 14.6107 72.0082 14.5948 71.9654C14.5714 71.922 14.5459 71.8804 14.5184 71.8406C14.4909 71.8007 14.4631 71.7646 14.4351 71.7323C14.4036 71.6959 14.379 71.6677 14.3615 71.6475L14.3656 71.5909L14.5552 71.4055L14.59 71.3966C14.611 71.4208 14.6441 71.463 14.6891 71.5231C14.7341 71.5831 14.7826 71.6472 14.8346 71.7154C14.8907 71.78 14.9413 71.8424 14.9863 71.9024C15.0353 71.959 15.0704 71.9994 15.0914 72.0236L15.4278 72.4115C15.4524 72.4398 15.4909 72.4842 15.5435 72.5448C15.5966 72.5979 15.6512 72.6567 15.7072 72.7214C15.7673 72.7825 15.8257 72.8416 15.8823 72.8987C15.9354 72.9518 15.9742 72.9924 15.9988 73.0207L15.9798 73.0478L15.763 73.2142L15.723 73.217C15.6634 73.1483 15.6053 73.0855 15.5487 73.0284C15.488 72.9748 15.4275 72.9458 15.3671 72.9415C15.3108 72.9337 15.2551 72.943 15.2001 72.9693C15.1416 72.9917 15.0542 73.0461 14.938 73.1325C14.886 73.1705 14.8195 73.2245 14.7387 73.2945C14.6578 73.3645 14.5445 73.4625 14.3989 73.5886L13.9561 73.9719C13.8712 74.0454 13.8004 74.1067 13.7438 74.1557C13.6831 74.2082 13.6323 74.2557 13.5913 74.2983C13.5468 74.3368 13.5081 74.3738 13.4752 74.4094C13.4388 74.4409 13.4022 74.4761 13.3652 74.5152C13.3318 74.5583 13.3039 74.6037 13.2815 74.6513C13.2591 74.699 13.2471 74.7341 13.2455 74.7568C13.228 74.8427 13.2414 74.9194 13.2859 74.987C13.3304 75.0546 13.3807 75.1208 13.4367 75.1854L13.4335 75.2306L13.2272 75.4092L13.188 75.4007L13.0934 75.2916C13.0163 75.2027 12.9164 75.0876 12.7938 74.9462C12.6671 74.8083 12.5521 74.6921 12.4489 74.5975L12.2346 74.4117L12.3183 74.2755C12.4161 74.2333 12.5189 74.1762 12.6264 74.1043C12.7305 74.0283 12.8291 73.9501 12.9221 73.8696L12.9124 73.8462Z" fill="#6190C0"/>
<path d="M8.71 68.8856L9.20839 69.6137C9.46459 69.4387 9.70464 69.278 9.92853 69.1315C10.145 68.9837 10.3349 68.8539 10.4984 68.7423C10.6574 68.6337 10.7892 68.5468 10.8938 68.4819C10.9954 68.4125 11.0573 68.3702 11.0794 68.3551C11.2516 68.2374 11.3438 68.1259 11.356 68.0205C11.3681 67.9151 11.3439 67.8182 11.2835 67.73C11.2382 67.6638 11.1802 67.5933 11.1096 67.5185C11.039 67.4437 10.973 67.3852 10.9116 67.3429L10.9573 67.2534L11.2213 67.1702C11.3691 67.2441 11.5045 67.333 11.6274 67.4368C11.7517 67.5332 11.8501 67.6343 11.9226 67.7403C12.1069 68.0094 12.1764 68.2436 12.1313 68.4429C12.0861 68.6421 11.9664 68.8081 11.772 68.9408C11.7322 68.968 11.6534 69.0186 11.5356 69.0926C11.4133 69.1697 11.2623 69.2664 11.0826 69.3826C10.8984 69.5019 10.6878 69.6394 10.4506 69.7949C10.2135 69.9504 9.95799 70.1217 9.68412 70.3087L9.91972 70.6529L9.90471 70.702L9.61316 70.9012L9.56854 70.8928L9.24017 70.612C9.09882 70.7085 8.95827 70.811 8.81854 70.9194C8.67137 71.0264 8.53013 71.1326 8.39482 71.238L8.32335 71.2188L8.25329 71.1307C8.23215 71.0998 8.20124 71.0594 8.16058 71.0094C8.11689 70.9551 8.0717 70.8985 8.025 70.8398C7.97387 70.784 7.92577 70.7327 7.88069 70.6858C7.83259 70.6344 7.79506 70.5986 7.7681 70.5781L7.75383 70.5004C7.87937 70.4471 8.03943 70.3636 8.23402 70.2502C8.42419 70.1397 8.601 70.0286 8.76444 69.917L8.2263 69.216L8.23015 69.1648L8.65422 68.8751L8.71 68.8856Z" fill="#6190C0"/>
<path d="M7.16767 63.7349L7.38536 63.8378C7.52021 64.0931 7.65618 64.3448 7.79327 64.5929C7.92786 64.8363 8.06383 65.088 8.20118 65.348L8.50835 65.9296C8.54398 65.9168 8.57836 65.9017 8.61149 65.8843C8.63988 65.8693 8.66828 65.8543 8.69668 65.8393C8.81973 65.7745 8.93155 65.6883 9.03213 65.5809C9.13271 65.4735 9.20897 65.3487 9.26091 65.2065C9.30562 65.062 9.32128 64.9027 9.30789 64.7284C9.28977 64.5566 9.22701 64.3691 9.11963 64.1658C9.04222 64.0192 8.94212 63.8755 8.81935 63.7347C8.68935 63.5917 8.55376 63.4667 8.41258 63.3598L8.3986 63.2131L8.65417 63.0783L8.76972 63.1081C8.91958 63.1742 9.09343 63.2971 9.29126 63.4769C9.48659 63.652 9.65169 63.8672 9.78654 64.1225C9.9189 64.3731 9.99978 64.6236 10.0292 64.874C10.0514 65.1222 10.0267 65.3619 9.95518 65.593C9.88115 65.8194 9.76248 66.0301 9.59919 66.2249C9.43339 66.4151 9.22271 66.5775 8.96714 66.7122C8.70683 66.8494 8.44771 66.9316 8.18978 66.9588C7.93185 66.9859 7.68845 66.9661 7.45958 66.8994C7.22822 66.8279 7.0175 66.7154 6.82742 66.5617C6.63484 66.4033 6.47737 66.2083 6.35501 65.9766C6.29008 65.8537 6.23422 65.7078 6.18744 65.5391C6.13816 65.3656 6.12339 65.183 6.14313 64.9912C6.15813 64.802 6.22086 64.6057 6.33131 64.4025C6.43702 64.2017 6.6159 64.0077 6.86793 63.8204L7.16767 63.7349ZM6.88371 65.6889C7.00607 65.9205 7.17571 66.0699 7.39261 66.1369C7.60229 66.2016 7.80941 66.2043 8.01397 66.1448L7.82667 65.7902C7.73927 65.6247 7.65074 65.4629 7.5611 65.3046C7.46673 65.1488 7.37584 64.9882 7.28844 64.8227C7.25597 64.7613 7.21568 64.7251 7.16757 64.7142C7.11472 64.7058 7.06937 64.7115 7.0315 64.7315C6.88952 64.8063 6.80504 64.9385 6.77807 65.128C6.7511 65.3175 6.78631 65.5045 6.88371 65.6889Z" fill="#6190C0"/>
<path d="M7.34412 59.1441C7.30922 59.1577 7.24148 59.1754 7.1409 59.1973C7.03341 59.2162 6.94031 59.2352 6.86163 59.2543L6.83462 59.2734C7.11449 59.3137 7.35892 59.4252 7.56791 59.6078C7.77191 59.7923 7.92245 60.0091 8.01952 60.2582C8.12631 60.5322 8.16963 60.7907 8.1495 61.0337C8.12742 61.2718 8.06032 61.4901 7.94818 61.6886C7.83604 61.8871 7.68537 62.0604 7.49618 62.2086C7.30699 62.3567 7.09771 62.4754 6.86832 62.5646C6.53421 62.6946 6.22958 62.7528 5.95444 62.7394C5.67236 62.7229 5.42698 62.6605 5.2183 62.5524C5.00463 62.4462 4.82752 62.3086 4.68698 62.1395C4.53951 61.9674 4.42985 61.7892 4.35802 61.6048C4.27065 61.3807 4.23661 61.1386 4.25591 60.8787C4.2752 60.6188 4.37735 60.3726 4.56235 60.14L4.5266 60.1367C4.38587 60.2029 4.24071 60.2651 4.09111 60.3233C3.93652 60.3834 3.78692 60.4416 3.6423 60.4978C3.48772 60.5579 3.36056 60.6074 3.26082 60.6462C3.1561 60.6869 3.0698 60.7233 3.00193 60.7555C2.93212 60.7826 2.87076 60.8094 2.81784 60.8357C2.76299 60.857 2.70661 60.8818 2.64872 60.9101C2.60079 60.9344 2.56021 60.9703 2.52698 61.0176C2.49375 61.065 2.47257 61.099 2.46343 61.1198C2.43576 61.2109 2.42803 61.2942 2.44025 61.3698C2.45053 61.4403 2.47314 61.5205 2.50809 61.6101L2.48982 61.6517L2.24298 61.7477L2.20141 61.7294L2.03541 61.3035C1.99076 61.1889 1.94416 61.0694 1.89562 60.9448C1.84016 60.8172 1.78553 60.7065 1.73174 60.6127L1.59241 60.3657L1.71706 60.2656C1.74089 60.2678 1.78217 60.2633 1.84091 60.2519C1.89272 60.2375 1.94951 60.2211 2.0113 60.2028C2.07114 60.1796 2.12945 60.1597 2.18625 60.1434C2.2411 60.1221 2.28349 60.1056 2.31341 60.0939C2.38821 60.0648 2.46149 60.0392 2.53324 60.017C2.59807 59.9918 2.67536 59.9618 2.76512 59.9268C2.8499 59.8939 2.95808 59.8547 3.08968 59.8092C3.21434 59.7607 3.37641 59.6977 3.57588 59.6201L5.20653 58.9859C5.41597 58.9044 5.58552 58.8385 5.71517 58.7881C5.83789 58.7346 5.94164 58.6914 6.02642 58.6584C6.10925 58.6205 6.18308 58.5889 6.24791 58.5637C6.30581 58.5354 6.37866 58.5013 6.46648 58.4614C6.55236 58.4166 6.61233 58.3789 6.6464 58.3484C6.67853 58.313 6.70027 58.273 6.71161 58.2284C6.73597 58.1731 6.73955 58.1086 6.72234 58.0349C6.70015 57.9633 6.6774 57.8975 6.6541 57.8378L6.67237 57.7962L6.92087 57.6824L6.95661 57.6857C6.97965 57.7742 7.00808 57.8693 7.04193 57.9709C7.07577 58.0724 7.11017 58.1681 7.14511 58.2577C7.19753 58.3922 7.24995 58.5267 7.30237 58.6612C7.35978 58.7938 7.41677 58.9179 7.47334 59.0336L7.34412 59.1441ZM6.52302 61.7008C6.67262 61.6426 6.81293 61.5679 6.94396 61.4768C7.06805 61.3826 7.17288 61.2759 7.25846 61.1566C7.33904 61.0392 7.39191 60.9096 7.41707 60.7679C7.4353 60.6231 7.41335 60.471 7.35123 60.3116C7.28521 60.1422 7.19954 60.0035 7.09421 59.8953C6.98195 59.784 6.86845 59.6991 6.75372 59.6405C6.63206 59.5788 6.51664 59.5405 6.40746 59.5256C6.29635 59.5057 6.2074 59.5059 6.14064 59.5261L5.31035 59.8491C5.24941 59.8842 5.18376 59.9442 5.11342 60.0289C5.03614 60.1106 4.97259 60.2127 4.92277 60.3354C4.871 60.453 4.84043 60.5883 4.83107 60.7411C4.81672 60.8958 4.8445 61.0628 4.91439 61.2422C4.97846 61.4066 5.07119 61.534 5.19259 61.6245C5.309 61.7169 5.44008 61.7806 5.58584 61.8157C5.72966 61.8458 5.88316 61.8492 6.04635 61.8259C6.20954 61.8026 6.36843 61.7609 6.52302 61.7008Z" fill="#6190C0"/>
<path d="M3.11881 50.2104L3.7886 50.2438L4.16329 52.8472L3.49465 52.8217L3.11881 50.2104Z" fill="#6190C0"/>
<path d="M5.28056 39.712C5.33763 39.9852 5.38024 40.2706 5.40837 40.5681C5.44183 40.866 5.44482 41.1748 5.41735 41.4944C5.37751 41.9578 5.27339 42.3566 5.105 42.6909C4.93174 43.0194 4.71263 43.2877 4.44768 43.4957C4.18319 43.6983 3.88352 43.8416 3.54868 43.9256C3.21383 44.0095 2.86512 44.0359 2.50257 44.0048C2.11869 43.9719 1.76651 43.8827 1.44602 43.7371C1.12598 43.5863 0.853415 43.3831 0.628307 43.1277C0.403199 42.8723 0.236217 42.5656 0.127359 42.2075C0.0131699 41.8489 -0.0242335 41.4406 0.0151492 40.9826C0.02385 40.8814 0.0392563 40.7647 0.0613679 40.6324C0.0839379 40.4949 0.114963 40.3527 0.154444 40.2058C0.193924 40.059 0.244297 39.9104 0.305563 39.76C0.361954 39.6039 0.430988 39.4569 0.512664 39.319L0.586015 39.3092L1.44607 39.5199L1.41516 39.8794L1.38842 39.9093C1.20485 39.9203 1.04884 40.017 0.920389 40.1991C0.787065 40.3754 0.702772 40.6687 0.667511 41.0788C0.64553 41.3344 0.65006 41.5629 0.681102 41.7641C0.707269 41.9595 0.777235 42.1452 0.890999 42.3213C0.971563 42.4463 1.07262 42.5515 1.19417 42.637C1.31039 42.7221 1.44131 42.7924 1.58693 42.8478C1.73255 42.9032 1.88732 42.946 2.05123 42.9762C2.21514 43.0063 2.37973 43.0285 2.54501 43.0427C2.87024 43.0706 3.16448 43.0529 3.42773 42.9897C3.69144 42.9211 3.9179 42.8171 4.10713 42.6777C4.29635 42.5384 4.44788 42.3689 4.56171 42.1695C4.67067 41.9642 4.73568 41.739 4.75674 41.494C4.76315 41.4195 4.76736 41.3394 4.76935 41.2537C4.76647 41.1622 4.7607 41.0732 4.75203 40.9866C4.74336 40.9 4.73111 40.8238 4.71528 40.7581C4.69991 40.687 4.6827 40.6373 4.66367 40.6088C4.65042 40.5755 4.6307 40.555 4.6045 40.5474C4.5783 40.5398 4.54387 40.5341 4.50121 40.5305C4.46389 40.5273 4.40258 40.522 4.31727 40.5147C4.23197 40.5074 4.16486 40.507 4.11596 40.5135C3.97642 40.5123 3.86994 40.5326 3.7965 40.5746C3.71819 40.6108 3.667 40.644 3.64293 40.6741C3.59616 40.7184 3.56598 40.7883 3.55241 40.8837C3.53883 40.9791 3.52838 41.0694 3.52105 41.1546L3.48563 41.1918L3.14767 41.187L3.11706 41.1682C3.12026 41.131 3.12796 41.0726 3.14017 40.9932C3.15282 40.9084 3.16548 40.8236 3.17814 40.7389C3.19126 40.6488 3.20392 40.564 3.21612 40.4846C3.22878 40.3998 3.23671 40.3388 3.23991 40.3015L3.288 39.7423C3.2912 39.705 3.29289 39.6542 3.29305 39.5898C3.29321 39.5254 3.29361 39.4584 3.29423 39.3887C3.29485 39.319 3.29524 39.252 3.29541 39.1876C3.29557 39.1232 3.29725 39.0724 3.30046 39.0351L3.33382 39.0219L3.68434 39.068L3.7129 39.1107C3.69962 39.2652 3.73555 39.3783 3.82069 39.45C3.90096 39.5159 4.02594 39.5615 4.19564 39.5868C4.30136 39.6066 4.4153 39.6244 4.53747 39.6402C4.65477 39.6503 4.74274 39.6578 4.80139 39.6629C4.88137 39.6697 4.96934 39.6773 5.06531 39.6855C5.15641 39.688 5.21574 39.685 5.24332 39.6767L5.28056 39.712Z" fill="#6190C0"/>
<path d="M4.26996 35.4379L4.37331 35.6551C4.31592 35.9381 4.26169 36.2189 4.21061 36.4976C4.16059 36.7712 4.10636 37.052 4.04791 37.3401L3.9172 37.9846C3.95285 37.9973 3.98903 38.0073 4.02574 38.0147C4.05721 38.0211 4.08868 38.0275 4.12015 38.0338C4.25651 38.0615 4.39765 38.0655 4.54358 38.0459C4.68951 38.0264 4.82764 37.978 4.95797 37.9007C5.08412 37.8172 5.19722 37.7037 5.29729 37.5603C5.3921 37.4159 5.46236 37.231 5.50806 37.0057C5.541 36.8433 5.55456 36.6688 5.54874 36.4822C5.53873 36.2892 5.51295 36.1067 5.47141 35.9347L5.55358 35.8122L5.83679 35.8696L5.90739 35.9657C5.98154 36.1116 6.03821 36.3167 6.07743 36.581C6.1177 36.84 6.10915 37.111 6.05176 37.394C5.99543 37.6716 5.89931 37.9167 5.76339 38.1292C5.62329 38.3354 5.45232 38.5053 5.25048 38.639C5.04971 38.7675 4.82437 38.8555 4.57447 38.9031C4.32564 38.9454 4.05962 38.9379 3.7764 38.8806C3.48794 38.8222 3.23527 38.722 3.01839 38.5799C2.8015 38.4378 2.62562 38.2686 2.49073 38.0722C2.35691 37.8706 2.26511 37.6502 2.21534 37.411C2.16663 37.1666 2.16831 36.916 2.22039 36.6593C2.24802 36.5231 2.29719 36.3749 2.36791 36.2146C2.43969 36.0492 2.54397 35.8985 2.68075 35.7625C2.81228 35.6255 2.9852 35.5133 3.19952 35.4257C3.40859 35.3371 3.67001 35.3001 3.98376 35.3145L4.26996 35.4379ZM2.81201 36.7709C2.75994 37.0276 2.79663 37.2505 2.92209 37.4395C3.04337 37.6223 3.20203 37.7553 3.39807 37.8386L3.47778 37.4456C3.51497 37.2623 3.54901 37.081 3.5799 36.9018C3.60554 36.7215 3.63696 36.5397 3.67416 36.3563C3.68797 36.2882 3.67971 36.2347 3.64938 36.1959C3.61379 36.1559 3.57502 36.1317 3.53307 36.1232C3.37573 36.0914 3.22658 36.1403 3.08562 36.2699C2.94466 36.3996 2.85346 36.5666 2.81201 36.7709Z" fill="#6190C0"/>
<path d="M4.4862 30.7561L4.21335 31.595C4.50854 31.6908 4.78254 31.7826 5.03535 31.8703C5.28473 31.9512 5.50358 32.0222 5.69189 32.0834C5.8751 32.1428 6.02442 32.1941 6.13982 32.2372C6.25687 32.2752 6.32812 32.2983 6.35357 32.3066C6.55206 32.371 6.69679 32.3758 6.78775 32.321C6.87872 32.2662 6.94074 32.188 6.97381 32.0863C6.99862 32.0101 7.01909 31.9212 7.03524 31.8196C7.0514 31.718 7.0575 31.6301 7.05355 31.5557L7.1524 31.5372L7.37953 31.6953C7.41122 31.8573 7.42344 32.0187 7.4162 32.1793C7.41571 32.3366 7.39561 32.4762 7.35593 32.5982C7.25505 32.9083 7.11187 33.1064 6.92637 33.1923C6.74087 33.2782 6.53616 33.2849 6.31222 33.2122C6.26642 33.1973 6.17818 33.1658 6.04751 33.1178C5.91175 33.0681 5.74291 33.0077 5.54099 32.9365C5.33398 32.8637 5.09643 32.781 4.82834 32.6884C4.56026 32.5957 4.26845 32.4982 3.9529 32.3958L3.82392 32.7923L3.77583 32.8105L3.43993 32.7014L3.41931 32.661L3.44142 32.2298C3.27856 32.1769 3.1115 32.1283 2.94024 32.0839C2.76555 32.0329 2.59512 31.986 2.42895 31.9433L2.40051 31.875L2.4276 31.7658C2.43918 31.7302 2.45234 31.6811 2.4671 31.6184C2.48351 31.5507 2.50074 31.4804 2.5188 31.4075C2.53177 31.3331 2.54309 31.2637 2.55276 31.1994C2.56408 31.13 2.56961 31.0784 2.56935 31.0445L2.62221 30.9858C2.74118 31.0525 2.90506 31.1282 3.11385 31.2128C3.31756 31.2958 3.51356 31.3679 3.70187 31.429L3.92892 30.5752L3.97185 30.547L4.46044 30.7056L4.4862 30.7561Z" fill="#6190C0"/>
<path d="M6.97107 23.4749C7.09022 23.5467 7.21038 23.5754 7.33156 23.561C7.45273 23.5466 7.57856 23.5038 7.70903 23.4325C7.83493 23.3585 7.96959 23.2649 8.11301 23.1515C8.25643 23.0381 8.40767 22.917 8.56672 22.7881C8.73036 22.6619 8.89444 22.5454 9.05895 22.4385C9.21888 22.3288 9.38609 22.2485 9.56057 22.1976C9.73324 22.1393 9.91133 22.1186 10.0948 22.1355C10.2765 22.1451 10.4659 22.2092 10.663 22.3279C10.8646 22.4494 11.0244 22.5987 11.1424 22.7759C11.2558 22.9504 11.3279 23.1467 11.3586 23.365C11.3875 23.5759 11.3705 23.806 11.3075 24.0552C11.2473 24.2999 11.1398 24.5504 10.9851 24.8067C10.8193 25.0814 10.6191 25.3354 10.3846 25.5686C10.15 25.8019 9.90823 25.9902 9.65921 26.1336L9.55326 26.1073L8.7275 25.3944L8.91403 25.0854L8.976 25.076C9.30878 25.239 9.59688 25.2689 9.84031 25.1659C10.0865 25.0582 10.3063 24.8442 10.4998 24.5237C10.6904 24.2079 10.7736 23.9459 10.7493 23.7377C10.7204 23.5268 10.596 23.355 10.376 23.2225C10.2339 23.137 10.0991 23.0963 9.97155 23.1006C9.84398 23.1049 9.71495 23.1427 9.58447 23.2139C9.45676 23.2805 9.3221 23.3742 9.1805 23.4949C9.0389 23.6156 8.87846 23.7468 8.69918 23.8885C8.54013 24.0175 8.3834 24.1322 8.22899 24.2327C8.07001 24.3304 7.91062 24.403 7.75082 24.4503C7.58921 24.4903 7.42171 24.4986 7.2483 24.4753C7.0749 24.452 6.89197 24.3824 6.6995 24.2664C6.29623 24.0235 6.06337 23.7053 6.00092 23.3119C5.94124 22.9138 6.07443 22.4447 6.40051 21.9045C6.54974 21.6573 6.71908 21.4441 6.90853 21.2648C7.0934 21.0828 7.269 20.942 7.43534 20.8424L7.52753 20.8605L8.24483 21.4424L8.04587 21.772L7.99077 21.7857C7.78172 21.6972 7.58305 21.6899 7.39474 21.7637C7.20644 21.8376 7.03768 21.9981 6.88846 22.2453C6.72265 22.52 6.64914 22.766 6.66793 22.9833C6.68672 23.2006 6.78777 23.3645 6.97107 23.4749Z" fill="#6190C0"/>
<path d="M11.8362 17.8758L11.297 18.5743C11.5428 18.7636 11.77 18.942 11.9786 19.1095C12.1863 19.2694 12.3685 19.4098 12.5253 19.5306C12.6778 19.6481 12.8012 19.7465 12.8954 19.8258C12.9929 19.9009 13.0522 19.9466 13.0734 19.9629C13.2387 20.0902 13.3734 20.1434 13.4775 20.1223C13.5816 20.1012 13.6663 20.0484 13.7317 19.9637C13.7807 19.9002 13.8299 19.8233 13.8792 19.7331C13.9286 19.6429 13.964 19.5621 13.9852 19.4907L14.0846 19.5065L14.2453 19.7316C14.2207 19.8949 14.1779 20.0509 14.117 20.1998C14.0637 20.3477 13.9978 20.4725 13.9194 20.5741C13.72 20.8323 13.5185 20.9708 13.3149 20.9894C13.1113 21.0081 12.9163 20.9456 12.7298 20.802C12.6917 20.7726 12.6192 20.7134 12.5122 20.6242C12.4011 20.5319 12.2624 20.4183 12.0962 20.2835C11.9257 20.1454 11.7298 19.9877 11.5084 19.8105C11.2871 19.6332 11.0451 19.4434 10.7823 19.241L10.5274 19.5712L10.4761 19.5722L10.1964 19.3567L10.1906 19.3117L10.3564 18.913C10.2208 18.8085 10.0798 18.7066 9.93347 18.6074C9.78611 18.5006 9.64137 18.3993 9.49923 18.3033L9.4954 18.2294L9.55767 18.1356C9.58054 18.106 9.60946 18.0641 9.64444 18.0101C9.68268 17.9518 9.72256 17.8914 9.76407 17.8288C9.80134 17.763 9.83535 17.7015 9.86609 17.6442C9.90009 17.5826 9.92266 17.5358 9.93379 17.5039L10.0033 17.4664C10.0929 17.5691 10.2218 17.6954 10.39 17.8452C10.554 17.9918 10.7143 18.1254 10.8711 18.2462L11.3722 17.5183L11.4221 17.5062L11.8289 17.8195L11.8362 17.8758Z" fill="#6190C0"/>
<path d="M16.9927 16.9224C16.9693 16.8773 16.9269 16.8212 16.8654 16.7541C16.8076 16.6831 16.7574 16.6157 16.7149 16.5521L16.692 16.5411C16.7049 16.6429 16.7083 16.7506 16.7023 16.8641C16.7001 16.9738 16.6847 17.0855 16.656 17.1994C16.6274 17.3132 16.5836 17.4234 16.5245 17.5301C16.4731 17.6367 16.4026 17.736 16.3131 17.828C16.1788 17.966 16.0402 18.0663 15.8973 18.1288C15.7544 18.1914 15.6149 18.2236 15.4786 18.2255C15.3424 18.2275 15.2096 18.2029 15.0802 18.1518C14.9546 18.0969 14.8418 18.021 14.7421 17.9242C14.5924 17.7789 14.4936 17.6196 14.4457 17.4464C14.3978 17.2732 14.3916 17.0994 14.4269 16.925C14.4587 16.7619 14.5225 16.5966 14.6185 16.4289C14.7107 16.2574 14.8087 16.0992 14.9126 15.954C15.0165 15.8089 15.1168 15.6827 15.2137 15.5755C15.3067 15.4645 15.37 15.3918 15.4036 15.3573L15.4819 15.2768C15.3592 15.1651 15.2596 15.0833 15.1832 15.0315C15.103 14.9759 15.0305 14.9354 14.9658 14.9099C14.8555 14.8698 14.7458 14.8752 14.6368 14.9259C14.5276 14.969 14.4209 15.0443 14.3164 15.1516C14.253 15.2168 14.1898 15.2933 14.1267 15.3812C14.0635 15.4614 14.0137 15.5472 13.9771 15.6385C13.9406 15.7297 13.923 15.8245 13.9244 15.9227C13.9257 16.0135 13.961 16.0999 14.0303 16.1821L14.0252 16.2219L13.8462 16.4059L13.2547 15.9323L13.237 15.8815C13.2363 15.8362 13.2543 15.7679 13.2908 15.6766C13.3274 15.5854 13.3789 15.4826 13.4453 15.3682C13.508 15.2501 13.5839 15.1299 13.6729 15.0077C13.7619 14.8779 13.8605 14.7574 13.9686 14.6462C14.1141 14.4967 14.2694 14.3754 14.4346 14.2823C14.5959 14.1855 14.7578 14.1265 14.9202 14.1053C15.0864 14.0802 15.2512 14.0949 15.4147 14.1493C15.5744 14.1999 15.7271 14.296 15.8729 14.4376C16.0303 14.5903 16.1627 14.7227 16.2703 14.8345C16.3816 14.9426 16.4833 15.0451 16.5755 15.1421C16.6678 15.239 16.758 15.3342 16.8464 15.4274C16.9347 15.5131 17.0345 15.61 17.1457 15.718C17.2415 15.796 17.3141 15.8479 17.3637 15.8737C17.4132 15.8994 17.4626 15.9101 17.5117 15.9056C17.5723 15.9047 17.6362 15.8774 17.7036 15.8235C17.7708 15.762 17.8305 15.7045 17.8827 15.6508L17.9225 15.6559L18.1294 15.8344L18.1469 15.8625C18.0758 15.9202 17.9973 15.9894 17.9114 16.07C17.8255 16.1506 17.7472 16.2274 17.6763 16.3002C17.5719 16.4075 17.4675 16.5149 17.363 16.6222C17.2624 16.7333 17.1694 16.8405 17.0838 16.9438L16.9927 16.9224ZM16.371 16.3188C16.363 16.2887 16.3511 16.2548 16.3355 16.2172C16.3235 16.1758 16.3002 16.1346 16.2656 16.0935L15.8043 15.5897L15.7539 15.6415C15.6383 15.7603 15.5322 15.8847 15.4357 16.0146C15.3392 16.1445 15.2672 16.276 15.2199 16.409C15.1726 16.5419 15.1594 16.6744 15.1802 16.8065C15.201 16.9385 15.2728 17.0641 15.3956 17.1833C15.4992 17.2839 15.606 17.3391 15.7159 17.3489C15.8295 17.3548 15.9292 17.3137 16.015 17.2255C16.0784 17.1604 16.1341 17.0877 16.1821 17.0077C16.2301 16.92 16.2686 16.8344 16.2977 16.7508C16.3268 16.6672 16.3483 16.5875 16.3624 16.5117C16.3726 16.4322 16.3755 16.3679 16.371 16.3188Z" fill="#6190C0"/>
<path d="M18.008 12.2666C17.9851 12.1541 17.9629 12.0342 17.9414 11.9066C17.9242 11.7757 17.9182 11.646 17.9235 11.5173C17.9288 11.3887 17.9526 11.2657 17.9948 11.1484C18.0411 11.0277 18.1181 10.9233 18.2258 10.8353C18.259 10.8082 18.3017 10.7802 18.3541 10.7513C18.4072 10.7148 18.4616 10.6842 18.5173 10.6594C18.5772 10.6312 18.6367 10.6067 18.6958 10.5861C18.7549 10.5654 18.8054 10.5553 18.8472 10.5557L18.9212 10.5574L19.3954 11.2887L19.1282 11.507C19.0751 11.4675 19.0013 11.4449 18.9068 11.4392C18.813 11.426 18.7123 11.4634 18.6046 11.5514C18.5093 11.6292 18.4426 11.7251 18.4046 11.8391C18.3631 11.9489 18.3422 12.0627 18.3418 12.1804C18.3414 12.2981 18.3585 12.4119 18.3931 12.5217C18.4243 12.6274 18.467 12.7134 18.5212 12.7796L18.8718 13.2079C19.0005 13.3652 19.0971 13.4831 19.1614 13.5618C19.2299 13.637 19.29 13.7019 19.3415 13.7565C19.4244 13.8407 19.4957 13.9068 19.5555 13.9546C19.6161 13.9948 19.6749 14.0159 19.7317 14.0178C19.7619 14.0208 19.7986 14.015 19.8419 14.0003C19.8859 13.9782 19.9283 13.9539 19.969 13.9276C20.0096 13.9013 20.0465 13.8746 20.0797 13.8475C20.117 13.8171 20.146 13.7934 20.1667 13.7765L20.2232 13.7821L20.4033 13.9768L20.4112 14.0118C20.3863 14.0321 20.3432 14.0639 20.2818 14.1071C20.2204 14.1503 20.1549 14.197 20.0852 14.247C20.0189 14.3011 19.9551 14.3498 19.8937 14.393C19.8357 14.4404 19.7943 14.4743 19.7694 14.4946L19.3717 14.8194C19.3427 14.8431 19.2972 14.8803 19.235 14.9311C19.1804 14.9826 19.12 15.0354 19.0537 15.0896C18.9908 15.1479 18.93 15.2044 18.8712 15.2593C18.8166 15.3109 18.7748 15.3485 18.7458 15.3721L18.7193 15.3524L18.5589 15.1312L18.5573 15.0911C18.6277 15.0336 18.6923 14.9774 18.751 14.9225C18.8064 14.8634 18.8371 14.8038 18.8431 14.7437C18.8526 14.6876 18.8449 14.6318 18.82 14.5761C18.7993 14.517 18.7474 14.4283 18.6642 14.3097C18.6277 14.2567 18.5756 14.1888 18.5078 14.106C18.4401 14.0233 18.3452 13.9074 18.2233 13.7584L17.8524 13.3052C17.7812 13.2183 17.722 13.1459 17.6745 13.088C17.6237 13.0259 17.5776 12.9738 17.5362 12.9317C17.4989 12.8861 17.463 12.8464 17.4284 12.8126C17.3979 12.7753 17.3636 12.7377 17.3256 12.6997C17.2834 12.6651 17.2388 12.6359 17.1918 12.6122C17.1447 12.5885 17.1099 12.5755 17.0873 12.5733C17.0018 12.5533 16.9247 12.5646 16.8557 12.607C16.7868 12.6495 16.7192 12.6978 16.6529 12.752L16.6078 12.7475L16.435 12.5364L16.4446 12.4975L16.5565 12.4061C16.6476 12.3317 16.7657 12.2352 16.9107 12.1168C17.0523 11.9942 17.1719 11.8827 17.2694 11.7823L17.4615 11.5736L17.5953 11.6611C17.6348 11.76 17.689 11.8642 17.7579 11.9737C17.8309 12.0798 17.9063 12.1804 17.9843 12.2756L18.008 12.2666Z" fill="#6190C0"/>
<path d="M23.0916 8.21194L22.3489 8.68882C22.5167 8.94965 22.6706 9.19394 22.8108 9.42169C22.9525 9.64205 23.077 9.83543 23.184 10.0018C23.2882 10.1637 23.3712 10.2978 23.4333 10.4042C23.4998 10.5076 23.5403 10.5706 23.5548 10.593C23.6676 10.7684 23.7766 10.8637 23.8818 10.8788C23.9869 10.8939 24.0845 10.8726 24.1745 10.8148C24.242 10.7714 24.3142 10.7155 24.3911 10.6471C24.4679 10.5787 24.5284 10.5145 24.5725 10.4544L24.6607 10.5026L24.7364 10.7686C24.6582 10.9141 24.5655 11.0467 24.4581 11.1665C24.358 11.2879 24.254 11.3833 24.146 11.4527C23.8714 11.629 23.635 11.6917 23.437 11.6409C23.2389 11.5902 23.0762 11.4658 22.9489 11.268C22.9229 11.2275 22.8745 11.1473 22.8038 11.0275C22.7302 10.9032 22.6378 10.7497 22.5266 10.5669C22.4124 10.3796 22.281 10.1654 22.1321 9.92411C21.9833 9.68287 21.8192 9.42284 21.6398 9.14402L21.2887 9.36945L21.24 9.35306L21.049 9.05625L21.0587 9.01192L21.3491 8.69205C21.2565 8.54814 21.1579 8.40487 21.0535 8.26225C20.9506 8.11223 20.8484 7.96816 20.7468 7.83003L20.768 7.75921L20.8582 7.69177C20.8897 7.67154 20.9311 7.64184 20.9822 7.60266C21.0378 7.56059 21.0957 7.51707 21.1558 7.47211C21.2131 7.42266 21.2658 7.37609 21.314 7.33242C21.3668 7.28585 21.4038 7.2494 21.425 7.22306L21.5031 7.21103C21.5529 7.33791 21.6318 7.50012 21.7398 7.69768C21.845 7.89073 21.951 8.07046 22.0581 8.23685L22.7748 7.7195L22.826 7.72481L23.1037 8.15654L23.0916 8.21194Z" fill="#6190C0"/>
<path d="M28.2896 6.81888L28.1804 7.03332C27.9211 7.16069 27.6654 7.28928 27.4132 7.41908C27.1658 7.54653 26.9101 7.67512 26.646 7.80485L26.0553 8.09497C26.067 8.13091 26.0812 8.16567 26.0977 8.19925C26.1119 8.22803 26.126 8.25681 26.1402 8.2856C26.2016 8.41033 26.2846 8.52444 26.3892 8.62795C26.4938 8.73145 26.6165 8.81116 26.7573 8.86709C26.9006 8.91586 27.0596 8.93605 27.2344 8.92766C27.4068 8.91446 27.5962 8.85716 27.8027 8.75573C27.9516 8.68262 28.0982 8.58677 28.2426 8.4682C28.3894 8.34247 28.5184 8.21064 28.6294 8.07272L28.7766 8.06294L28.9041 8.322L28.871 8.43653C28.8007 8.58429 28.6727 8.75438 28.4871 8.94679C28.3063 9.13684 28.0863 9.29555 27.827 9.42292C27.5725 9.54793 27.3195 9.62155 27.068 9.64378C26.819 9.65885 26.5799 9.62737 26.3507 9.54933C26.1263 9.46894 25.9189 9.34443 25.7286 9.1758C25.543 9.00482 25.3865 8.7898 25.259 8.53074C25.1292 8.26689 25.0543 8.0058 25.0345 7.74746C25.0147 7.48913 25.0415 7.24664 25.1148 7.02001C25.1929 6.79102 25.3116 6.58381 25.4708 6.3984C25.6347 6.21062 25.8344 6.05895 26.0697 5.94337C26.1946 5.88205 26.3421 5.83044 26.5123 5.78854C26.6873 5.74428 26.8704 5.73475 27.0617 5.75994C27.2507 5.78032 27.4453 5.84857 27.6455 5.96466C27.8434 6.07596 28.0324 6.26011 28.2126 6.51713L28.2896 6.81888ZM26.3425 6.47953C26.1072 6.59511 25.953 6.76023 25.8797 6.97491C25.8089 7.18244 25.8004 7.38918 25.854 7.59515L26.2142 7.41825C26.3823 7.33569 26.5468 7.25192 26.7077 7.16693C26.8662 7.07714 27.0296 6.99096 27.1976 6.90841C27.2601 6.87775 27.2974 6.83855 27.3097 6.79082C27.3196 6.73829 27.3152 6.69283 27.2963 6.65445C27.2254 6.51053 27.0956 6.4224 26.9067 6.39006C26.7179 6.35772 26.5298 6.38754 26.3425 6.47953Z" fill="#6190C0"/>
<path d="M32.8782 7.1262C32.8656 7.09096 32.8498 7.02281 32.8307 6.92176C32.8149 6.81387 32.7986 6.72037 32.7817 6.64126L32.7633 6.61374C32.715 6.89205 32.5965 7.13295 32.4078 7.33642C32.2174 7.53486 31.9961 7.67899 31.7441 7.76882C31.4669 7.86762 31.207 7.9035 30.9644 7.87646C30.7268 7.84762 30.5103 7.77437 30.3149 7.65673C30.1195 7.53908 29.9503 7.38368 29.8075 7.19053C29.6646 6.99739 29.5518 6.78501 29.4691 6.5534C29.3486 6.21607 29.2991 5.91021 29.3204 5.63585C29.3449 5.35465 29.4143 5.1114 29.5285 4.90611C29.6409 4.69578 29.7836 4.52285 29.9568 4.38734C30.1332 4.24499 30.3147 4.14059 30.5012 4.07412C30.728 3.99328 30.9712 3.9662 31.2307 3.99289C31.4902 4.01958 31.7337 4.12861 31.9611 4.31999L31.9655 4.28439C31.9032 4.14197 31.8451 3.99523 31.7912 3.84419C31.7355 3.68811 31.6815 3.53706 31.6294 3.39105C31.5736 3.23496 31.5277 3.10657 31.4918 3.00588C31.454 2.90014 31.42 2.81293 31.3898 2.74424C31.3646 2.67375 31.3396 2.61171 31.3148 2.55812C31.295 2.50274 31.2718 2.44574 31.2452 2.38711C31.2222 2.33856 31.1875 2.29702 31.141 2.26248C31.0946 2.22795 31.0611 2.20582 31.0406 2.19611C30.9503 2.16587 30.8671 2.15578 30.7912 2.16582C30.7203 2.17407 30.6394 2.19436 30.5487 2.2267L30.5077 2.20727L30.4187 1.95804L30.4381 1.91705L30.8691 1.76346C30.985 1.72214 31.1059 1.67902 31.2319 1.63411C31.3612 1.58237 31.4735 1.53098 31.5689 1.47995L31.82 1.34787L31.9167 1.4752C31.9138 1.49893 31.9172 1.54029 31.9269 1.59926C31.9398 1.65141 31.9546 1.70859 31.9711 1.77081C31.9927 1.83122 32.0108 1.89002 32.0256 1.9472C32.0454 2.00259 32.0606 2.04538 32.0714 2.07559C32.0984 2.15112 32.122 2.22502 32.1421 2.29731C32.1655 2.36276 32.1934 2.4408 32.2257 2.53143C32.2563 2.61702 32.2924 2.72617 32.3342 2.85888C32.3791 2.98475 32.4376 3.14838 32.5095 3.34978L33.0975 4.99619C33.1731 5.20766 33.2342 5.37885 33.281 5.50976C33.331 5.63383 33.3712 5.73867 33.4018 5.82426C33.4374 5.90806 33.4669 5.98268 33.4903 6.04814C33.5169 6.10676 33.5489 6.18049 33.5863 6.26932C33.6288 6.35635 33.6648 6.41732 33.6943 6.45221C33.7288 6.4853 33.7682 6.50815 33.8125 6.52074C33.8672 6.54665 33.9316 6.55207 34.0058 6.53699C34.0782 6.51687 34.1446 6.49603 34.2051 6.47448L34.2461 6.49391L34.3529 6.7453L34.3486 6.7809C34.2593 6.80137 34.1634 6.82705 34.0608 6.85794C33.9582 6.88884 33.8615 6.92045 33.7708 6.95279C33.6347 7.00129 33.4986 7.0498 33.3625 7.0983C33.2283 7.15184 33.1024 7.2052 32.9851 7.25839L32.8782 7.1262ZM30.3434 6.23327C30.3973 6.38432 30.468 6.52656 30.5555 6.66C30.6461 6.7866 30.75 6.89433 30.8669 6.98319C30.9821 7.06701 31.1102 7.12351 31.2513 7.15268C31.3957 7.17501 31.5485 7.15744 31.7098 7.09996C31.8811 7.03888 32.0224 6.95729 32.1337 6.8552C32.2482 6.74627 32.3364 6.63537 32.3984 6.52247C32.4636 6.40275 32.5052 6.28859 32.5232 6.17999C32.5463 6.0696 32.5486 5.98078 32.5303 5.91353L32.2309 5.07522C32.1974 5.01336 32.1393 4.9461 32.0565 4.87344C31.977 4.79394 31.8766 4.72756 31.7553 4.67431C31.6391 4.61925 31.5046 4.58487 31.352 4.57116C31.1976 4.55241 31.0296 4.57538 30.8482 4.64005C30.6819 4.69933 30.5517 4.78829 30.4577 4.90693C30.3619 5.02053 30.2944 5.14961 30.2551 5.29415C30.2209 5.4369 30.2131 5.59009 30.2318 5.75371C30.2504 5.91734 30.2877 6.07719 30.3434 6.23327Z" fill="#6190C0"/>
<path d="M41.9381 3.16206L41.8856 3.82993L39.2699 4.12974L39.3145 3.46278L41.9381 3.16206Z" fill="#6190C0"/>
</svg>
